<svg width="36" height="36" viewBox="0 0 36 36" fill="none" xmlns="http://www.w3.org/2000/svg">
<circle cx="18" cy="18" r="18" fill="black"/>
<g clip-path="url(#clip0)">
<path d="M21.2401 11.825H14.7467V24.175H21.2401V11.825Z" fill="#FF5F00"/>
<path d="M15.1589 18C15.1579 16.8106 15.4126 15.6366 15.9036 14.5667C16.3947 13.4969 17.1093 12.5593 17.9933 11.825C16.8986 10.9143 15.5838 10.3479 14.1993 10.1906C12.8148 10.0333 11.4164 10.2915 10.164 10.9356C8.91155 11.5797 7.85561 12.5838 7.11685 13.833C6.37809 15.0822 5.98633 16.5263 5.98633 18C5.98633 19.4738 6.37809 20.9178 7.11685 22.167C7.85561 23.4163 8.91155 24.4203 10.164 25.0644C11.4164 25.7085 12.8148 25.9667 14.1993 25.8094C15.5838 25.6521 16.8986 25.0858 17.9933 24.175C17.1093 23.4407 16.3947 22.5031 15.9036 21.4333C15.4126 20.3635 15.1579 19.1894 15.1589 18Z" fill="#EB001B"/>
<path d="M30 18C30.0001 19.4737 29.6084 20.9178 28.8697 22.167C28.1309 23.4162 27.075 24.4203 25.8226 25.0644C24.5702 25.7085 23.1719 25.9667 21.7874 25.8094C20.4029 25.6521 19.0881 25.0858 17.9934 24.175C18.8767 23.44 19.5907 22.5022 20.0817 21.4326C20.5727 20.3629 20.8278 19.1892 20.8278 18C20.8278 16.8108 20.5727 15.6371 20.0817 14.5674C19.5907 13.4978 18.8767 12.5601 17.9934 11.825C19.0881 10.9143 20.4029 10.3479 21.7874 10.1906C23.1719 10.0333 24.5702 10.2915 25.8226 10.9356C27.075 11.5797 28.1309 12.5838 28.8697 13.833C29.6084 15.0823 30.0001 16.5263 30 18Z" fill="#F79E1B"/>
<path d="M29.2921 22.8669V22.6141H29.3884V22.5626H29.1431V22.6141H29.2394V22.8669H29.2921ZM29.7683 22.8669V22.5621H29.6932L29.6067 22.7718L29.5201 22.5621H29.4449V22.8669H29.498V22.637L29.5791 22.8352H29.6342L29.7153 22.6365V22.8669H29.7683Z" fill="#F79E1B"/>
</g>
<defs>
<clipPath id="clip0">
<rect width="24" height="18" fill="white" transform="translate(6 9)"/>
</clipPath>
</defs>
</svg>
