<svg width="36" height="36" viewBox="0 0 36 36" fill="none" xmlns="http://www.w3.org/2000/svg">
<circle cx="18" cy="18" r="18" fill="#1F1E6E"/>
<path d="M14.4976 13.485L10.7303 22.5285H8.25008L6.42608 15.375C6.39608 15.03 6.18608 14.7255 5.87408 14.5747C5.14658 14.226 4.38008 13.965 3.59033 13.8V13.5375H7.52783C8.06633 13.5435 8.52158 13.938 8.60483 14.4697L9.57533 19.7197L11.9903 13.5637L14.4976 13.485ZM24.1186 19.575C24.1186 17.1997 20.8373 17.0677 20.8636 15.9915C20.8636 15.6765 21.1786 15.3225 21.8476 15.2437C22.6351 15.1642 23.4286 15.3 24.1448 15.6375L24.5513 13.7212C23.8531 13.4662 23.1158 13.3327 22.3726 13.3275C20.0753 13.3275 18.4351 14.5477 18.4351 16.32C18.4351 17.6325 19.5901 18.3412 20.4698 18.7747C21.3488 19.2075 21.6773 19.5097 21.6773 19.9035C21.6773 20.5065 20.9551 20.769 20.2853 20.7825C19.4543 20.805 18.6308 20.61 17.8966 20.2177L17.4376 22.2C18.2746 22.5225 19.1656 22.6822 20.0626 22.6725C22.5038 22.6725 24.0916 21.465 24.1051 19.575H24.1186ZM30.1688 22.5285H32.3086L30.4441 13.485H28.4753C28.0381 13.485 27.6436 13.749 27.4778 14.1547L24.0001 22.5285H26.4413L26.9138 21.216H29.8936L30.1688 22.5285ZM27.5438 19.326L28.7776 15.939L29.5126 19.3125L27.5438 19.3252V19.326ZM17.7788 13.485L15.8626 22.5285H13.5788L15.4951 13.485H17.7788Z" fill="#F0F6FA"/>
</svg>
