<svg width="36" height="36" viewBox="0 0 36 36" fill="none" xmlns="http://www.w3.org/2000/svg">
<path d="M18 36C27.9411 36 36 27.9411 36 18C36 8.05888 27.9411 0 18 0C8.05888 0 0 8.05888 0 18C0 27.9411 8.05888 36 18 36Z" fill="#0051FE"/>
<path d="M23.4383 19.0285C22.9565 21.5815 20.7164 23.5119 18.0238 23.5119C14.9793 23.5119 12.5119 21.0445 12.5119 18C12.5119 14.9555 14.9793 12.4881 18.0238 12.4881C20.7164 12.4881 22.9565 14.4196 23.4383 16.9714H29C28.4814 11.3653 23.7653 6.97617 18.0238 6.97617C11.9348 6.97617 7 11.9121 7 18C7 24.089 11.9359 29.0238 18.0238 29.0238C23.7653 29.0238 28.4814 24.6346 29 19.0285H23.4383Z" fill="white"/>
</svg>
