<svg width="62" height="18" viewBox="0 0 62 18" fill="none" xmlns="http://www.w3.org/2000/svg">
<path fill-rule="evenodd" clip-rule="evenodd" d="M9 1H53C57.4183 1 61 4.58172 61 9C61 13.4183 57.4183 17 53 17H9C4.58172 17 1 13.4183 1 9C1 4.58172 4.58172 1 9 1ZM0 9C0 4.02944 4.02944 0 9 0H53C57.9706 0 62 4.02944 62 9C62 13.9706 57.9706 18 53 18H9C4.02944 18 0 13.9706 0 9ZM19.9436 11.3965C20.5319 10.7617 20.8261 9.85352 20.8261 8.67188C20.8261 7.48698 20.5336 6.57878 19.9485 5.94727C19.3667 5.31576 18.5251 5 17.4236 5C16.3221 5 15.4755 5.31413 14.8839 5.94238C14.2956 6.56738 14.0014 7.47396 14.0014 8.66211C14.0014 9.85026 14.2956 10.7617 14.8839 11.3965C15.4723 12.0312 16.3155 12.3486 17.4138 12.3486C18.512 12.3486 19.3553 12.0312 19.9436 11.3965ZM16.0508 10.4736C15.7468 10.07 15.5948 9.4694 15.5948 8.67188C15.5948 7.87435 15.7484 7.27376 16.0557 6.87012C16.3629 6.46322 16.8189 6.25977 17.4236 6.25977C18.6297 6.25977 19.2327 7.0638 19.2327 8.67188C19.2327 10.2767 18.6264 11.0791 17.4138 11.0791C16.8091 11.0791 16.3548 10.8773 16.0508 10.4736ZM10.0347 6.91406C10.3484 6.48438 10.7913 6.26953 11.3633 6.26953C11.6248 6.26953 11.8912 6.31673 12.1625 6.41113C12.4338 6.50553 12.7034 6.61621 12.9714 6.74316L13.4617 5.5127C12.759 5.17741 12.0595 5.00977 11.3633 5.00977C10.6802 5.00977 10.0837 5.15951 9.5738 5.45898C9.06718 5.75521 8.67822 6.18327 8.40693 6.74316C8.13564 7.2998 8 7.94922 8 8.69141C8 9.86979 8.27619 10.7747 8.82857 11.4062C9.38095 12.0345 10.1785 12.3486 11.2211 12.3486C11.9468 12.3486 12.6037 12.2266 13.1921 11.9824V10.7129C12.4763 10.9635 11.8667 11.0889 11.3633 11.0889C10.1638 11.0889 9.56399 10.293 9.56399 8.70117C9.56399 7.9362 9.72088 7.34049 10.0347 6.91406ZM24.9449 12.251L23.2191 6.65039H23.1749C23.237 7.78971 23.2681 8.5498 23.2681 8.93066V12.251H21.91V5.1123H23.979L25.6754 10.5713H25.7048L27.5041 5.1123H29.5731V12.251H28.1562V8.87207C28.1562 8.71257 28.1578 8.52865 28.1611 8.32031C28.1676 8.11198 28.1905 7.55859 28.2297 6.66016H28.1856L26.3372 12.251H24.9449ZM32.2896 6.65039L34.0154 12.251H35.4078L37.2562 6.66016H37.3003C37.2611 7.55859 37.2382 8.11198 37.2317 8.32031C37.2284 8.52865 37.2267 8.71257 37.2267 8.87207V12.251H38.6437V5.1123H36.5747L34.7754 10.5713H34.7459L33.0496 5.1123H30.9806V12.251H32.3387V8.93066C32.3387 8.5498 32.3076 7.78971 32.2455 6.65039H32.2896ZM46.5572 8.67188C46.5572 9.85352 46.263 10.7617 45.6747 11.3965C45.0863 12.0312 44.243 12.3486 43.1448 12.3486C42.0466 12.3486 41.2033 12.0312 40.615 11.3965C40.0266 10.7617 39.7325 9.85026 39.7325 8.66211C39.7325 7.47396 40.0266 6.56738 40.615 5.94238C41.2066 5.31413 42.0531 5 43.1546 5C44.2561 5 45.0978 5.31576 45.6796 5.94727C46.2646 6.57878 46.5572 7.48698 46.5572 8.67188ZM41.3259 8.67188C41.3259 9.4694 41.4779 10.07 41.7818 10.4736C42.0858 10.8773 42.5401 11.0791 43.1448 11.0791C44.3574 11.0791 44.9638 10.2767 44.9638 8.67188C44.9638 7.0638 44.3607 6.25977 43.1546 6.25977C42.5499 6.25977 42.094 6.46322 41.7867 6.87012C41.4795 7.27376 41.3259 7.87435 41.3259 8.67188ZM52.0683 12.251H54V5.1123H52.6321V8.49121C52.6321 8.87533 52.6566 9.53125 52.7057 10.459H52.6713L49.5581 5.1123H47.6411V12.251H48.9991V8.8916C48.9991 8.4847 48.9681 7.80436 48.906 6.85059H48.9501L52.0683 12.251Z" fill="#6B7280"/>
</svg>
