<svg width="36" height="18" viewBox="0 0 36 18" fill="none" xmlns="http://www.w3.org/2000/svg">
<path fill-rule="evenodd" clip-rule="evenodd" d="M9 1H27C31.4183 1 35 4.58172 35 9C35 13.4183 31.4183 17 27 17H9C4.58172 17 1 13.4183 1 9C1 4.58172 4.58172 1 9 1ZM0 9C0 4.02944 4.02944 0 9 0H27C31.9706 0 36 4.02944 36 9C36 13.9706 31.9706 18 27 18H9C4.02944 18 0 13.9706 0 9ZM24.2799 6.9043C24.5839 6.47461 25.0131 6.25977 25.5673 6.25977C25.8207 6.25977 26.0788 6.30697 26.3417 6.40137C26.6046 6.49577 26.8659 6.60645 27.1256 6.7334L27.6007 5.50293C26.9197 5.16764 26.242 5 25.5673 5C24.9054 5 24.3274 5.14974 23.8333 5.44922C23.3424 5.74544 22.9655 6.1735 22.7026 6.7334C22.4397 7.29004 22.3083 7.93945 22.3083 8.68164C22.3083 9.86003 22.5759 10.765 23.1111 11.3965C23.6464 12.0247 24.4192 12.3389 25.4296 12.3389C26.1327 12.3389 26.7693 12.2168 27.3394 11.9727V10.7031C26.6458 10.9538 26.0551 11.0791 25.5673 11.0791C24.405 11.0791 23.8238 10.2832 23.8238 8.69141C23.8238 7.92643 23.9758 7.33073 24.2799 6.9043ZM9 12.2412H13.0002V10.9912H10.4728V9.15039H12.8244V7.91016H10.4728V6.34277H13.0002V5.10254H9V12.2412ZM16.0221 8.46191H15.5375V6.34277H16.2074C16.6096 6.34277 16.9042 6.42741 17.0911 6.59668C17.2811 6.76595 17.3761 7.02799 17.3761 7.38281C17.3761 7.73438 17.2637 8.00293 17.0388 8.18848C16.8139 8.37077 16.475 8.46191 16.0221 8.46191ZM18.16 9.0918C18.6288 8.6849 18.8631 8.09733 18.8631 7.3291C18.8631 6.59017 18.643 6.03516 18.2028 5.66406C17.7657 5.28971 17.1259 5.10254 16.2834 5.10254H14.0648V12.2412H15.5375V9.70215H16.1694C17.0309 9.70215 17.6944 9.4987 18.16 9.0918ZM19.7852 12.2412V5.10254H21.2579V12.2412H19.7852Z" fill="#8B5CF6"/>
</svg>
