<svg width="72" height="18" viewBox="0 0 72 18" fill="none" xmlns="http://www.w3.org/2000/svg">
<path fill-rule="evenodd" clip-rule="evenodd" d="M9 1H63C67.4183 1 71 4.58172 71 9C71 13.4183 67.4183 17 63 17H9C4.58172 17 1 13.4183 1 9C1 4.58172 4.58172 1 9 1ZM0 9C0 4.02944 4.02944 0 9 0H63C67.9706 0 72 4.02944 72 9C72 13.9706 67.9706 18 63 18H9C4.02944 18 0 13.9706 0 9ZM24.0018 8.23242H21.1697V9.49219H22.5223V10.9814C22.1967 11.0465 21.8761 11.0791 21.5604 11.0791C20.9549 11.0791 20.4926 10.8757 20.1736 10.4688C19.8579 10.0586 19.7 9.46615 19.7 8.69141C19.7 7.94922 19.8969 7.3584 20.2908 6.91895C20.6847 6.47949 21.2088 6.25977 21.8631 6.25977C22.4262 6.25977 22.9682 6.38997 23.4891 6.65039L23.992 5.43945C23.3117 5.14648 22.6053 5 21.8729 5C20.7042 5 19.7895 5.32227 19.1287 5.9668C18.4712 6.61133 18.1424 7.50977 18.1424 8.66211C18.1424 9.847 18.4256 10.7568 18.992 11.3916C19.5617 12.0231 20.3852 12.3389 21.4627 12.3389C21.8859 12.3389 22.2993 12.3079 22.7029 12.2461C23.1098 12.1875 23.5428 12.0833 24.0018 11.9336V8.23242ZM8 12.2412V5.10254H9.51367V10.9912H12.4092V12.2412H8ZM17.3656 12.2412H13.2543V5.10254H17.3656V6.34277H14.768V7.91016H17.185V9.15039H14.768V10.9912H17.3656V12.2412ZM29.4172 12.2412H25.3059V5.10254H29.4172V6.34277H26.8195V7.91016H29.2365V9.15039H26.8195V10.9912H29.4172V12.2412ZM34.9205 12.2412H36.8443V5.10254H35.482V8.48145C35.482 8.86556 35.5064 9.52148 35.5553 10.4492H35.5211L32.4205 5.10254H30.5113V12.2412H31.8639V8.88184C31.8639 8.47493 31.8329 7.7946 31.7711 6.84082H31.815L34.9205 12.2412ZM44.1689 8.60352C44.1689 9.77865 43.8337 10.6787 43.1631 11.3037C42.4958 11.9287 41.5306 12.2412 40.2676 12.2412H38.2461V5.10254H40.4873C41.6527 5.10254 42.5576 5.41016 43.2021 6.02539C43.8467 6.64062 44.1689 7.5 44.1689 8.60352ZM42.5967 8.64258C42.5967 7.10938 41.9196 6.34277 40.5654 6.34277H39.7598V10.9912H40.4092C41.8675 10.9912 42.5967 10.2083 42.5967 8.64258ZM46.4984 10.542H49.101L49.6186 12.2412H51.2494L48.7201 5.07324H46.8695L44.35 12.2412H45.9809L46.4984 10.542ZM47.9291 6.66016C47.9909 6.86198 48.2611 7.73275 48.7396 9.27246H46.8793C47.3871 7.62858 47.6947 6.59831 47.8021 6.18164C47.8282 6.29883 47.8705 6.45833 47.9291 6.66016ZM53.2664 8.27148H53.7547C54.2332 8.27148 54.5864 8.19173 54.8143 8.03223C55.0421 7.87272 55.1561 7.62207 55.1561 7.28027C55.1561 6.94173 55.0389 6.70085 54.8045 6.55762C54.5734 6.41439 54.2137 6.34277 53.7254 6.34277H53.2664V8.27148ZM53.2664 9.50195V12.2412H51.7527V5.10254H53.8328C54.8029 5.10254 55.5206 5.27995 55.9861 5.63477C56.4516 5.98633 56.6844 6.52181 56.6844 7.24121C56.6844 7.66113 56.5688 8.03548 56.3377 8.36426C56.1066 8.68978 55.7794 8.94531 55.3563 9.13086C56.4305 10.7357 57.1303 11.7725 57.4559 12.2412H55.7762L54.0721 9.50195H53.2664ZM61.6652 5.10254L60.176 8.04199L58.6965 5.10254H57.0559L59.424 9.51172V12.2412H60.9279V9.46289L63.2961 5.10254H61.6652Z" fill="#F4B000"/>
</svg>
