<svg width="40" height="18" viewBox="0 0 40 18" fill="none" xmlns="http://www.w3.org/2000/svg">
<path fill-rule="evenodd" clip-rule="evenodd" d="M9 1H31C35.4183 1 39 4.58172 39 9C39 13.4183 35.4183 17 31 17H9C4.58172 17 1 13.4183 1 9C1 4.58172 4.58172 1 9 1ZM0 9C0 4.02944 4.02944 0 9 0H31C35.9706 0 40 4.02944 40 9C40 13.9706 35.9706 18 31 18H9C4.02944 18 0 13.9706 0 9ZM18.0541 10.4688L18.5717 12.168H20.2025L17.6732 5H15.8227L13.4385 11.7828C13.0564 11.2228 12.4448 10.3144 11.6035 9.05762C12.0267 8.87207 12.3538 8.61654 12.585 8.29102C12.8161 7.96224 12.9316 7.58789 12.9316 7.16797C12.9316 6.44857 12.6989 5.91309 12.2334 5.56152C11.7679 5.20671 11.0501 5.0293 10.0801 5.0293H8V12.168H9.51367V9.42871H10.3193L12.0234 12.168H13.3031H13.7031H14.934L15.4516 10.4688H18.0541ZM16.8822 6.58691C16.9441 6.78874 17.2143 7.65951 17.6928 9.19922H15.8324C16.3402 7.55534 16.6479 6.52506 16.7553 6.1084C16.7813 6.22559 16.8236 6.38509 16.8822 6.58691ZM10.002 8.19824H9.51367V6.26953H9.97266C10.4609 6.26953 10.8206 6.34115 11.0518 6.48438C11.2861 6.6276 11.4033 6.86849 11.4033 7.20703C11.4033 7.54883 11.2894 7.79948 11.0615 7.95898C10.8337 8.11849 10.4805 8.19824 10.002 8.19824ZM22.2195 8.19824H22.7078C23.1863 8.19824 23.5395 8.11849 23.7674 7.95898C23.9952 7.79948 24.1092 7.54883 24.1092 7.20703C24.1092 6.86849 23.992 6.6276 23.7576 6.48438C23.5265 6.34115 23.1668 6.26953 22.6785 6.26953H22.2195V8.19824ZM22.2195 9.42871V12.168H20.7059V5.0293H22.7859C23.756 5.0293 24.4738 5.20671 24.9393 5.56152C25.4048 5.91309 25.6375 6.44857 25.6375 7.16797C25.6375 7.58789 25.5219 7.96224 25.2908 8.29102C25.0597 8.61654 24.7326 8.87207 24.3094 9.05762C25.3836 10.6624 26.0835 11.6992 26.409 12.168H24.7293L23.0252 9.42871H22.2195ZM26.9074 12.168H31.0187V10.918H28.4211V9.07715H30.8381V7.83691H28.4211V6.26953H31.0187V5.0293H26.9074V12.168Z" fill="#0073F0"/>
</svg>
