<svg width="37" height="36" viewBox="0 0 37 36" fill="none" xmlns="http://www.w3.org/2000/svg">
<g clip-path="url(#clip0_1182_6005)">
<path fill-rule="evenodd" clip-rule="evenodd" d="M18.5 36C28.4411 36 36.5 27.9411 36.5 18C36.5 8.05887 28.4411 0 18.5 0C8.55887 0 0.5 8.05887 0.5 18C0.5 27.9411 8.55887 36 18.5 36ZM24.3209 20.2002L16.6643 6.25846C10.9734 7.141 6.61751 12.0618 6.61751 18C6.61751 20.7842 7.57508 23.3448 9.17885 25.3703L12.6412 15.9247L20.2374 29.7564C25.9764 28.9156 30.3825 23.9723 30.3825 18C30.3825 15.2189 29.4271 12.661 27.8265 10.6365L24.3209 20.2002Z" fill="#0073F0"/>
</g>
<defs>
<clipPath id="clip0_1182_6005">
<rect width="36" height="36" fill="white" transform="translate(0.5)"/>
</clipPath>
</defs>
</svg>
