<svg width="560" height="396" viewBox="0 0 560 396" fill="none" xmlns="http://www.w3.org/2000/svg">
<path d="M121.315 306.484V237.481H0V187.612L109.713 21.5157H170.981V187.815H195V237.481H170.981V306.484H121.315ZM57.6044 187.612L121.315 187.815L121.112 89.2975L57.6044 187.612Z" fill="#3BA2F2"/>
<path d="M486.315 306.484V237.481H365V187.612L474.713 21.5157H535.981V187.815H560V237.481H535.981V306.484H486.315ZM422.604 187.612L486.315 187.815L486.112 89.2975L422.604 187.612Z" fill="#3BA2F2"/>
<g filter="url(#filter0_d)">
<g filter="url(#filter1_i)">
<ellipse cx="280" cy="164" rx="123.576" ry="123.576" fill="url(#paint0_linear)"/>
</g>
<path d="M399.576 164C399.576 230.04 346.04 283.576 280 283.576C213.96 283.576 160.424 230.04 160.424 164C160.424 97.9598 213.96 44.4236 280 44.4236C346.04 44.4236 399.576 97.9598 399.576 164Z" stroke="white" stroke-width="8"/>
<path fill-rule="evenodd" clip-rule="evenodd" d="M267.397 83.3901L319.963 179.105L344.03 113.447C355.018 127.346 361.577 144.907 361.577 164C361.577 205.002 331.328 238.939 291.928 244.712L239.777 149.752L216.007 214.6C204.997 200.694 198.422 183.115 198.422 164C198.422 123.232 228.327 89.4491 267.397 83.3901Z" fill="white"/>
</g>
<defs>
<filter id="filter0_d" x="82.4236" y="0.423584" width="395.153" height="395.153" filterUnits="userSpaceOnUse" color-interpolation-filters="sRGB">
<feFlood flood-opacity="0" result="BackgroundImageFix"/>
<feColorMatrix in="SourceAlpha" type="matrix" values="0 0 0 0 0 0 0 0 0 0 0 0 0 0 0 0 0 0 127 0" result="hardAlpha"/>
<feOffset dy="34"/>
<feGaussianBlur stdDeviation="37"/>
<feComposite in2="hardAlpha" operator="out"/>
<feColorMatrix type="matrix" values="0 0 0 0 0.0486111 0 0 0 0 0.491834 0 0 0 0 0.833333 0 0 0 1 0"/>
<feBlend mode="normal" in2="BackgroundImageFix" result="effect1_dropShadow"/>
<feBlend mode="normal" in="SourceGraphic" in2="effect1_dropShadow" result="shape"/>
</filter>
<filter id="filter1_i" x="146.424" y="32.4236" width="257.153" height="255.153" filterUnits="userSpaceOnUse" color-interpolation-filters="sRGB">
<feFlood flood-opacity="0" result="BackgroundImageFix"/>
<feBlend mode="normal" in="SourceGraphic" in2="BackgroundImageFix" result="shape"/>
<feColorMatrix in="SourceAlpha" type="matrix" values="0 0 0 0 0 0 0 0 0 0 0 0 0 0 0 0 0 0 127 0" result="hardAlpha"/>
<feOffset dx="-10" dy="-8"/>
<feGaussianBlur stdDeviation="12"/>
<feComposite in2="hardAlpha" operator="arithmetic" k2="-1" k3="1"/>
<feColorMatrix type="matrix" values="0 0 0 0 0 0 0 0 0 0 0 0 0 0 0 0 0 0 0.15 0"/>
<feBlend mode="normal" in2="shape" result="effect1_innerShadow"/>
</filter>
<linearGradient id="paint0_linear" x1="156.424" y1="40.4236" x2="403.576" y2="287.576" gradientUnits="userSpaceOnUse">
<stop stop-color="#36A7FE"/>
<stop offset="1" stop-color="#1E81F5"/>
</linearGradient>
</defs>
</svg>
