<svg width="271" height="57" viewBox="0 0 271 57" fill="none" xmlns="http://www.w3.org/2000/svg">
<path d="M28.3885 57C44.067 57 56.7769 44.2401 56.7769 28.5C56.7769 12.7599 44.067 0 28.3885 0C12.7099 0 0 12.7599 0 28.5C0 44.2401 12.7099 57 28.3885 57Z" fill="#1892F0"/>
<path d="M43.0004 17.4075L37.6554 32.1522L25.771 10.3772C22.4527 10.8491 19.3247 12.2181 16.7218 14.3376C14.1189 16.457 12.1391 19.2472 10.9943 22.4094C9.92963 25.3434 9.62007 28.4997 10.0943 31.5858C10.5685 34.6719 11.8112 37.5878 13.7071 40.0633L19.1309 25.1016L31.1398 47.1065C34.4239 46.6072 37.5133 45.2286 40.083 43.1158C42.6527 41.0029 44.6077 38.2339 45.7425 35.1C46.81 32.1583 47.1184 28.9932 46.6389 25.8996C46.1594 22.8059 44.9077 19.8845 43.0004 17.4075Z" fill="white"/>
<path d="M133.78 13.268C132.864 15.4748 132.001 17.6024 131.128 19.7209C129.617 23.3859 128.113 27.0546 126.581 30.7123C125.316 33.7392 124.017 36.7551 122.735 39.7709C122.236 40.9331 121.201 41.4719 120.002 41.2421C119.187 41.0876 118.73 40.5396 118.406 39.8206C116.758 36.1868 115.105 32.5555 113.449 28.9267C112.698 27.2716 111.949 25.6276 111.141 23.8475C110.993 24.1473 110.889 24.3458 110.797 24.5481C108.512 29.6175 106.228 34.6881 103.945 39.7599C103.718 40.2946 103.314 40.7342 102.802 41.0043C102.29 41.2744 101.7 41.3584 101.133 41.2421C100.334 41.0858 99.8506 40.5782 99.5355 39.8316C97.7038 35.3611 95.8372 30.8999 94 26.4294C92.2903 22.2611 90.5844 18.0892 88.8821 13.9135C88.8088 13.7296 88.7373 13.5457 88.6256 13.2625H90.8842C91.6498 13.2625 92.4155 13.2883 93.1793 13.2515C93.6281 13.2294 93.8351 13.3747 94.011 13.8032C96.485 19.9048 98.9738 26.0009 101.477 32.0915C101.582 32.3453 101.691 32.5954 101.844 32.976C102.534 31.4534 103.164 30.065 103.793 28.6766C105.522 24.8589 107.258 21.045 108.973 17.2199C109.381 16.3005 109.998 15.7175 111.022 15.7102C112.109 15.7102 112.915 16.2085 113.369 17.2089C114.602 19.925 115.82 22.6467 117.045 25.3665C118.13 27.7718 119.215 30.1778 120.302 32.5844C120.342 32.6745 120.392 32.7682 120.485 32.9521L120.958 31.8065C123.196 26.3448 125.435 20.8837 127.675 15.4233C127.926 14.8072 128.186 14.1949 128.483 13.6027C128.533 13.5166 128.601 13.4428 128.683 13.3868C128.765 13.3307 128.859 13.2939 128.957 13.2791C130.531 13.257 132.102 13.268 133.78 13.268Z" fill="#231815"/>
<path d="M189.945 34.1015V41.2384H185C185 41.0214 185 40.7897 185 40.558C185.012 32.1565 185.026 23.7543 185.042 15.3516C185.046 14.8879 185.078 14.4249 185.137 13.965C185.166 13.6692 185.305 13.3954 185.528 13.1994C185.75 13.0033 186.039 12.8997 186.335 12.9095C190.019 12.9095 193.708 12.8028 197.386 12.9426C201.233 13.0879 204.471 14.5829 206.545 18.0144C207.413 19.4303 207.931 21.035 208.053 22.6934C208.175 24.3518 207.898 26.0155 207.247 27.5443C206.595 29.073 205.587 30.4222 204.307 31.4782C203.027 32.5342 201.514 33.2661 199.894 33.6123C198.791 33.8353 197.67 33.9584 196.545 33.9801C194.519 34.0518 192.49 34.0335 190.462 34.0555C190.301 34.0592 190.143 34.085 189.945 34.1015ZM193.84 17.1207V17.1464C193.358 17.1464 192.874 17.1464 192.392 17.1464C190.951 17.1464 190.207 17.8323 190.194 19.2759C190.165 22.0588 190.165 24.84 190.194 27.6192C190.209 29.0665 190.951 29.734 192.392 29.7561C193.655 29.7745 194.918 29.802 196.181 29.8572C200.461 30.0411 203.456 26.766 202.876 22.5125C202.482 19.618 200.399 17.4738 197.501 17.1427C196.29 17.0067 195.061 17.1207 193.84 17.1207Z" fill="#1F568F"/>
<path d="M155.992 41.1189H151.046V39.6624C150.784 39.8022 150.603 39.9088 150.414 39.9971C146.361 41.9078 142.263 41.9887 138.259 39.9824C134.821 38.2593 133.111 35.249 132.824 31.4663C132.555 27.9502 133.522 24.8221 136.2 22.3892C138.09 20.6716 140.38 19.857 142.888 19.6308C145.652 19.3825 148.317 19.7374 150.764 21.1553C153.682 22.8489 155.3 25.4382 155.737 28.7575C155.886 30.0135 155.961 31.2772 155.961 32.5421C155.999 35.1681 155.985 37.7941 155.99 40.4201C155.992 40.6426 155.992 40.8614 155.992 41.1189ZM150.817 30.5688C150.775 30.1477 150.749 29.7248 150.687 29.3055C149.87 23.7482 144.38 22.6853 141.1 24.5242C139.085 25.6497 138.141 27.4905 137.925 29.7229C137.44 34.7708 141.014 38.011 145.826 37.1063C148.89 36.5215 150.799 33.947 150.81 30.5707L150.817 30.5688Z" fill="#231815"/>
<path d="M245.339 41.1188H240.393V39.6606C240.131 39.8003 239.952 39.907 239.763 39.9952C235.708 41.9059 231.61 41.9868 227.606 39.9805C224.168 38.2575 222.459 35.2471 222.171 31.4644C221.904 27.9483 222.869 24.8202 225.547 22.3873C227.439 20.6697 229.729 19.8569 232.235 19.6289C234.999 19.3806 237.664 19.7355 240.111 21.1534C243.029 22.847 244.647 25.4363 245.086 28.7556C245.234 30.0117 245.309 31.2754 245.31 32.5402C245.346 35.1662 245.332 37.7922 245.339 40.4182V41.1188ZM227.205 30.6607C227.243 31.0175 227.262 31.5048 227.349 31.9774C227.807 34.4398 229.123 36.2236 231.577 36.926C234.125 37.6616 236.523 37.3048 238.421 35.3059C240.009 33.638 240.355 31.5471 240.04 29.3293C239.238 23.7113 233.649 22.654 230.366 24.5628C228.095 25.885 227.311 28.0402 227.201 30.6644L227.205 30.6607Z" fill="#1F568F"/>
<path d="M212.569 13.2938H217.515V38.7724C217.515 40.1534 216.54 41.0343 215.025 41.0306C213.511 41.0269 212.584 40.1718 212.582 38.7981C212.575 30.4799 212.568 22.1624 212.562 13.8454L212.569 13.2938Z" fill="#1F568F"/>
<path d="M69.231 41.4003H74.3416V25.3426C74.3416 25.3426 74.3965 23.7979 76.3217 23.7979H79.6738C79.6738 23.7979 84.2898 23.4117 84.2898 28.7078V41.3966H89.0725V28.4302C89.0725 28.4302 89.6221 19.5462 81.1026 19.5462H70.7696C70.7696 19.5462 69.231 19.6014 69.231 21.0909V41.4003Z" fill="#231815"/>
<path d="M265.842 19.6326C264.743 19.6326 264.29 20.9198 264.29 20.9198C262.444 25.3529 260.593 29.7842 258.737 34.2136C258.573 34.6016 258.403 34.9823 258.203 35.442C258.059 35.122 257.954 34.8903 257.859 34.6715C255.881 29.9687 253.901 25.269 251.919 20.5723C251.699 20.1898 251.257 19.6363 250.538 19.6326H246.374C246.944 21.0099 247.484 22.3285 248.037 23.6304C250.509 29.4452 252.985 35.2563 255.465 41.0637C255.545 41.2289 255.587 41.4103 255.587 41.5942C255.587 41.7781 255.545 41.9595 255.465 42.1247C254.578 44.2101 253.712 46.3083 252.842 48.4066C252.496 49.2451 252.15 50.0855 251.8 50.9388H256.042C256.258 50.9417 256.471 50.8871 256.659 50.7805C256.848 50.6739 257.004 50.5191 257.114 50.332C257.315 49.841 257.515 49.3482 257.72 48.8608C261.614 39.5901 265.511 30.3218 269.41 21.0559L270.004 19.6307L265.842 19.6326Z" fill="#1F568F"/>
<path d="M176.606 19.6326C175.507 19.6326 175.055 20.9198 175.055 20.9198C173.208 25.3529 171.357 29.7842 169.499 34.2136C169.336 34.6016 169.166 34.9823 168.966 35.442C168.823 35.122 168.719 34.8903 168.622 34.6715C166.645 29.9687 164.665 25.269 162.681 20.5723C162.462 20.1898 162.02 19.6363 161.302 19.6326H157.139C157.708 21.0099 158.238 22.3285 158.802 23.6304C161.271 29.4452 163.747 35.2563 166.229 41.0637C166.31 41.229 166.351 41.4104 166.351 41.5942C166.351 41.778 166.31 41.9594 166.229 42.1248C165.345 44.2101 164.477 46.3083 163.608 48.4066C163.26 49.2451 162.916 50.0856 162.566 50.9388H166.799C167.015 50.9416 167.229 50.887 167.417 50.7804C167.606 50.6739 167.763 50.5192 167.873 50.332C168.074 49.841 168.274 49.3482 168.481 48.8608C172.375 39.5901 176.271 30.3218 180.169 21.0559C180.365 20.5907 180.559 20.1236 180.763 19.6307L176.606 19.6326Z" fill="#231815"/>
</svg>
