<svg width="24" height="24" viewBox="0 0 24 24" fill="none" xmlns="http://www.w3.org/2000/svg">
<path d="M3.6416 0.848018C3.6416 0.655813 3.79677 0.5 3.98819 0.5C7.81648 0.5 10.9199 3.61626 10.9199 7.46036V13.9345C10.9199 14.2313 10.6803 14.4719 10.3848 14.4719H4.17677C3.88121 14.4719 3.6416 14.2313 3.6416 13.9345V0.848018Z" fill="#122572"/>
<path d="M12.2041 7.11237C12.2041 6.9032 12.373 6.73364 12.5813 6.73364H12.7851C16.8386 6.73364 20.1246 10.0332 20.1246 14.1034C20.1246 14.3069 19.9603 14.4719 19.7577 14.4719H15.8433C13.8334 14.4719 12.2041 12.8359 12.2041 10.8177V7.11237Z" fill="#3186C6"/>
<path d="M3.6416 15.7207C3.6416 15.5059 3.81503 15.3318 4.02896 15.3318H19.7375C19.9514 15.3318 20.1249 15.5059 20.1249 15.7207C20.1249 20.0171 16.6563 23.5 12.3776 23.5H11.3888C7.11016 23.5 3.6416 20.0171 3.6416 15.7207Z" fill="#B0D9F7"/>
</svg>
