<svg width="24" height="24" viewBox="0 0 24 24" fill="none" xmlns="http://www.w3.org/2000/svg">
<path d="M12 6.66602L11.4004 7.11653L12 7.91462L12.5996 7.11653L12 6.66602ZM18.0069 13.7714L17.5086 13.2109L18.0069 13.7714ZM12 19.1109L11.5017 19.6715L12 20.1144L12.4983 19.6715L12 19.1109ZM5.99309 13.7714L6.49136 13.2109H6.49136L5.99309 13.7714ZM4.75 9.33312C4.75 7.29273 6.40406 5.63867 8.44444 5.63867V4.13867C5.57563 4.13867 3.25 6.4643 3.25 9.33312H4.75ZM8.44444 5.63867C9.65249 5.63867 10.7251 6.2177 11.4004 7.11653L12.5996 6.21551C11.6532 4.95582 10.1441 4.13867 8.44444 4.13867V5.63867ZM12.5996 7.11653C13.2749 6.2177 14.3475 5.63867 15.5556 5.63867V4.13867C13.8559 4.13867 12.3468 4.95582 11.4004 6.21551L12.5996 7.11653ZM15.5556 5.63867C17.5959 5.63867 19.25 7.29273 19.25 9.33312H20.75C20.75 6.4643 18.4244 4.13867 15.5556 4.13867V5.63867ZM19.25 9.33312C19.25 10.8151 18.6163 12.2263 17.5086 13.2109L18.5052 14.332C19.933 13.0628 20.75 11.2435 20.75 9.33312H19.25ZM17.5086 13.2109L11.5017 18.5503L12.4983 19.6715L18.5052 14.332L17.5086 13.2109ZM12.4983 18.5503L6.49136 13.2109L5.49482 14.332L11.5017 19.6715L12.4983 18.5503ZM6.49136 13.2109C5.38373 12.2263 4.75 10.8151 4.75 9.33312H3.25C3.25 11.2435 4.06695 13.0628 5.49482 14.332L6.49136 13.2109Z" fill="white"/>
</svg>
