<svg width="24" height="24" viewBox="0 0 24 24" fill="none" xmlns="http://www.w3.org/2000/svg">
<rect width="24" height="24" rx="4" fill="black"/>
<path fill-rule="evenodd" clip-rule="evenodd" d="M8.27161 4.5H5.56066L9.55554 8.49488L8.49488 9.55554L4.5 5.56066V8.27161H3V3.75V3H3.75H8.27161V4.5ZM15.8076 4.5H18.5186L14.5237 8.49488L15.5844 9.55554L19.5792 5.56071V8.27161H21.0792V3.75V3H20.3292H15.8076V4.5ZM18.5186 19.5793H15.8076V21.0793H20.3292H21.0792V20.3293V15.8076H19.5792V18.5185L15.5844 14.5237L14.5237 15.5844L18.5186 19.5793ZM4.5 18.5186L8.49488 14.5237L9.55554 15.5844L5.56066 19.5793H8.27161V21.0793H3.75H3V20.3293V15.8076H4.5V18.5186Z" fill="white"/>
</svg>
