<svg width="265" height="61" viewBox="0 0 265 61" fill="none" xmlns="http://www.w3.org/2000/svg">
<path fill-rule="evenodd" clip-rule="evenodd" d="M86.9728 15.0824H92.0996L100.091 34.3623L106.435 20.1251C106.435 20.1251 107.271 17.4425 109.069 17.4425C110.866 17.4425 111.702 20.1251 111.702 20.1251L118.047 34.3623L126.038 15.0824H131.165L120.461 41.0027C119.657 42.9498 116.913 42.9904 116.052 41.0679L109.069 25.4806L102.086 41.0679C101.224 42.9904 98.4811 42.9498 97.6771 41.0027L86.9728 15.0824ZM68 42.6527V22.7527C68 21.9242 68.6716 21.2527 69.5 21.2527H80.1C84.2421 21.2527 87.6 24.6105 87.6 28.7527V42.6527H82.7V29.3497C82.7 27.1406 80.9091 25.3497 78.7 25.3497H74.9C73.7954 25.3497 72.9 26.2451 72.9 27.3497V42.6527H68ZM154.153 21.3301H158.341C158.943 21.3301 159.487 21.6903 159.722 22.2448L165.848 36.7014L171.878 22.2524C172.111 21.6938 172.657 21.3301 173.263 21.3301H177.42L164.913 51.0249C164.679 51.581 164.134 51.9427 163.531 51.9427H159.415L163.29 42.8221L154.153 21.3301ZM141.537 42.4867C144.239 42.4867 146.519 41.8338 148.32 40.7135V42.3276H153.046V31.8809V31.6642H153.044C152.945 25.9068 148.869 21.2751 141.537 21.2751C134.113 21.2751 130.346 26.0235 130.346 31.8809C130.346 37.7383 134.25 42.4867 141.537 42.4867ZM141.614 38.4716C145.666 38.4716 148.014 35.5208 148.014 31.8809C148.014 28.241 145.742 25.2902 141.614 25.2902C137.486 25.2902 135.392 28.241 135.392 31.8809C135.392 35.5208 137.562 38.4716 141.614 38.4716Z" fill="white"/>
<path fill-rule="evenodd" clip-rule="evenodd" d="M181.49 16.2519C181.49 15.4235 182.162 14.7519 182.99 14.7519H183.598H186.468H193.894H194.407V14.7645C199.855 15.0322 204.189 19.5336 204.189 25.0473C204.189 30.561 199.855 35.0624 194.407 35.3301V35.3427H193.894H186.468V42.4867H181.49V16.2519ZM186.692 20.8827C186.692 19.7781 187.588 18.8827 188.692 18.8827H192.938H193.25V18.8902C196.554 19.0505 199.183 21.7458 199.183 25.0473C199.183 28.3488 196.554 31.0441 193.25 31.2044V31.2119H192.938H188.692C187.588 31.2119 186.692 30.3165 186.692 29.2119V20.8827ZM229.117 42.4867C231.819 42.4867 234.1 41.8338 235.9 40.7135V42.3276H240.626V31.6642H240.625C240.525 25.9068 236.449 21.2752 229.117 21.2752C221.693 21.2752 217.927 26.0235 217.927 31.8809C217.927 37.7383 221.83 42.4867 229.117 42.4867ZM229.194 38.4716C233.246 38.4716 235.594 35.5208 235.594 31.8809C235.594 28.241 233.323 25.2902 229.194 25.2902C225.066 25.2902 222.972 28.241 222.972 31.8809C222.972 35.5208 225.142 38.4716 229.194 38.4716ZM241.733 21.3301H245.921C246.523 21.3301 247.067 21.6903 247.302 22.2448L253.428 36.7014L259.458 22.2524C259.692 21.6938 260.237 21.3301 260.843 21.3301H265L252.493 51.0249C252.259 51.581 251.715 51.9427 251.111 51.9427H246.995L250.87 42.8221L241.733 21.3301ZM213.34 15.1127H208.654V40.2377C208.654 41.3423 209.549 42.2377 210.654 42.2377H211.34C212.445 42.2377 213.34 41.3423 213.34 40.2377V15.1127Z" fill="white"/>
<path fill-rule="evenodd" clip-rule="evenodd" d="M27.9041 57.9608C43.3151 57.9608 55.8081 45.4677 55.8081 30.0567C55.8081 14.6457 43.3151 2.15266 27.9041 2.15266C12.4931 2.15266 0 14.6457 0 30.0567C0 45.4677 12.4931 57.9608 27.9041 57.9608ZM36.9278 33.4675L25.0583 11.8547C16.2361 13.2228 9.48352 20.8512 9.48352 30.0567C9.48352 34.3729 10.968 38.3423 13.4542 41.4823L18.8216 26.8395L30.5975 48.2818C39.4941 46.9783 46.3246 39.3152 46.3246 30.0567C46.3246 25.7454 44.8435 21.7801 42.3623 18.6417L36.9278 33.4675Z" fill="white"/>
</svg>
