<svg width="40" height="40" viewBox="0 0 40 40" fill="none" xmlns="http://www.w3.org/2000/svg">
<circle cx="20" cy="20" r="20" fill="black"/>
<path fill-rule="evenodd" clip-rule="evenodd" d="M24.4444 23.3334V16.6667C24.4444 14.2121 22.4546 12.2223 20 12.2223C17.5454 12.2223 15.5555 14.2121 15.5555 16.6667V23.3334C15.5555 25.788 17.5454 27.7778 20 27.7778C22.4546 27.7778 24.4444 25.788 24.4444 23.3334ZM20 7.77783C15.0908 7.77783 11.1111 11.7575 11.1111 16.6667V23.3334C11.1111 28.2426 15.0908 32.2223 20 32.2223C24.9092 32.2223 28.8889 28.2426 28.8889 23.3334V16.6667C28.8889 11.7575 24.9092 7.77783 20 7.77783Z" fill="white"/>
</svg>
