<svg width="180" height="180" viewBox="0 0 180 180" fill="none" xmlns="http://www.w3.org/2000/svg">
<circle cx="90" cy="90" r="90" fill="#F2F2F2"/>
<path d="M51.4792 97H34.9998L45.2994 81H61.7788L51.4792 97Z" fill="#B4B4B4"/>
<rect x="44.8877" y="81" width="60.1498" height="61" fill="#C4C4C4"/>
<rect x="105.038" y="81" width="29.6629" height="61" fill="#B4B4B4"/>
<rect x="84.438" y="109" width="20.5993" height="20" fill="white"/>
<rect x="105.038" y="109" width="14.0075" height="20" fill="#E4E4E4"/>
<path d="M45.7117 81H105.862L95.5619 97H35.4121L45.7117 81Z" fill="#B4B4B4"/>
<rect x="88.5581" y="115" width="11.5356" height="1.5" fill="#DFDFDF"/>
<rect x="88.5581" y="119" width="6.59176" height="1.5" fill="#DFDFDF"/>
<path d="M115.337 97H145L134.701 81H105.038L115.337 97Z" fill="#C4C4C4"/>
<path fill-rule="evenodd" clip-rule="evenodd" d="M77 38C68.7157 38 62 44.7157 62 53C62 61.2843 68.7157 68 77 68H90V73L95.8333 68H107C115.284 68 122 61.2843 122 53C122 44.7157 115.284 38 107 38H77Z" fill="#C4C4C4"/>
<path fill-rule="evenodd" clip-rule="evenodd" d="M84 53C84 54.1046 83.1046 55 82 55C80.8954 55 80 54.1046 80 53C80 51.8954 80.8954 51 82 51C83.1046 51 84 51.8954 84 53ZM94 53C94 54.1046 93.1046 55 92 55C90.8954 55 90 54.1046 90 53C90 51.8954 90.8954 51 92 51C93.1046 51 94 51.8954 94 53ZM102 55C103.105 55 104 54.1046 104 53C104 51.8954 103.105 51 102 51C100.895 51 100 51.8954 100 53C100 54.1046 100.895 55 102 55Z" fill="white"/>
</svg>
