<svg width="41" height="14" viewBox="0 0 41 14" fill="#000000" xmlns="http://www.w3.org/2000/svg">
<path d="M15.6338 0.98002L10.6108 13.038H7.30382L4.87182 3.50002C4.83182 3.04002 4.55182 2.63402 4.13582 2.43302C3.16582 1.96802 2.14382 1.62002 1.09082 1.40002V1.05002H6.34082C7.05882 1.05802 7.66582 1.58402 7.77682 2.29302L9.07082 9.29302L12.2908 1.08502L15.6338 0.98002ZM28.4618 9.10002C28.4618 5.93302 24.0868 5.75702 24.1218 4.32202C24.1218 3.90202 24.5418 3.43002 25.4338 3.32502C26.4838 3.21902 27.5418 3.40002 28.4968 3.85002L29.0388 1.29502C28.1078 0.95502 27.1248 0.77702 26.1338 0.77002C23.0708 0.77002 20.8838 2.39702 20.8838 4.76002C20.8838 6.51002 22.4238 7.45502 23.5968 8.03302C24.7688 8.61002 25.2068 9.01302 25.2068 9.53802C25.2068 10.342 24.2438 10.692 23.3508 10.71C22.2428 10.74 21.1448 10.48 20.1658 9.95702L19.5538 12.6C20.6698 13.03 21.8578 13.243 23.0538 13.23C26.3088 13.23 28.4258 11.62 28.4438 9.10002H28.4618ZM36.5288 13.038H39.3818L36.8958 0.98002H34.2708C33.6878 0.98002 33.1618 1.33202 32.9408 1.87302L28.3038 13.038H31.5588L32.1888 11.288H36.1618L36.5288 13.038ZM33.0288 8.76802L34.6738 4.25202L35.6538 8.75002L33.0288 8.76702V8.76802ZM20.0088 0.98002L17.4538 13.038H14.4088L16.9638 0.98002H20.0088Z" fill="#BADDFA"/>
</svg>
