<svg width="40" height="40" viewBox="0 0 40 40" fill="none" xmlns="http://www.w3.org/2000/svg">
<circle cx="20" cy="20" r="20" fill="black"/>
<path fill-rule="evenodd" clip-rule="evenodd" d="M23.3333 25.5555V14.4444C23.3333 12.6035 21.8409 11.1111 19.9999 11.1111C18.159 11.1111 16.6666 12.6035 16.6666 14.4444V25.5555C16.6666 27.3965 18.159 28.8889 19.9999 28.8889C21.8409 28.8889 23.3333 27.3965 23.3333 25.5555ZM19.9999 6.66666C15.7044 6.66666 12.2222 10.1489 12.2222 14.4444V25.5555C12.2222 29.8511 15.7044 33.3333 19.9999 33.3333C24.2955 33.3333 27.7777 29.8511 27.7777 25.5555V14.4444C27.7777 10.1489 24.2955 6.66666 19.9999 6.66666Z" fill="white"/>
</svg>
