<svg width="24" height="24" viewBox="0 0 24 24" fill="none" xmlns="http://www.w3.org/2000/svg">
<circle cx="12" cy="12" r="12" fill="black"/>
<path fill-rule="evenodd" clip-rule="evenodd" d="M12.0002 4C9.42283 4 7.3335 6.08934 7.3335 8.66667C7.3335 11.244 9.42283 13.3333 12.0002 13.3333C12.7159 13.3333 13.394 13.1722 14.0002 12.8842V15.3333C14.0002 16.4379 13.1047 17.3333 12.0002 17.3333C10.8956 17.3333 10.0002 16.4379 10.0002 15.3333V14.9167H7.3335V15.3333C7.3335 17.9107 9.42283 20 12.0002 20C14.5775 20 16.6668 17.9107 16.6668 15.3333V8.66667C16.6668 6.08934 14.5775 4 12.0002 4ZM14.0002 8.66667C14.0002 7.5621 13.1047 6.66667 12.0002 6.66667C10.8956 6.66667 10.0002 7.5621 10.0002 8.66667C10.0002 9.77124 10.8956 10.6667 12.0002 10.6667C13.1047 10.6667 14.0002 9.77124 14.0002 8.66667Z" fill="white"/>
</svg>
