<svg width="36" height="36" viewBox="0 0 36 36" fill="none" xmlns="http://www.w3.org/2000/svg">
<path d="M0 18C0 8.05888 8.05888 0 18 0C27.9411 0 36 8.05888 36 18C36 27.9411 27.9411 36 18 36C8.05888 36 0 27.9411 0 18Z" fill="#E3F1FD"/>
<rect x="8.83337" y="10.5" width="18.3333" height="14.9999" rx="1" fill="#1892F0"/>
<path fill-rule="evenodd" clip-rule="evenodd" d="M12.1666 20.0833C12.1666 19.6231 12.5397 19.25 13 19.25H13.8333C14.2935 19.25 14.6666 19.6231 14.6666 20.0833C14.6666 20.5436 14.2935 20.9167 13.8333 20.9167H13C12.5397 20.9167 12.1666 20.5436 12.1666 20.0833ZM15.5 20.0833C15.5 19.6231 15.8731 19.25 16.3333 19.25H17.1666C17.6269 19.25 18 19.6231 18 20.0833C18 20.5436 17.6269 20.9167 17.1666 20.9167H16.3333C15.8731 20.9167 15.5 20.5436 15.5 20.0833ZM18.8333 20.0833C18.8333 19.6231 19.2064 19.25 19.6666 19.25H20.5C20.9602 19.25 21.3333 19.6231 21.3333 20.0833C21.3333 20.5436 20.9602 20.9167 20.5 20.9167H19.6666C19.2064 20.9167 18.8333 20.5436 18.8333 20.0833Z" fill="#E3F1FD"/>
<path fill-rule="evenodd" clip-rule="evenodd" d="M8.83337 11.3333C8.83337 10.8731 9.20647 10.5 9.66671 10.5H26.3334C26.7936 10.5 27.1667 10.8731 27.1667 11.3333V15.5C27.1667 15.9602 26.7936 16.3333 26.3334 16.3333C25.8731 16.3333 25.5 15.9602 25.5 15.5V12.1667H10.5V15.5C10.5 15.9602 10.1269 16.3333 9.66671 16.3333C9.20647 16.3333 8.83337 15.9602 8.83337 15.5V11.3333Z" fill="#05449E"/>
<path fill-rule="evenodd" clip-rule="evenodd" d="M8.83337 15.5C8.83337 15.0397 9.20647 14.6666 9.66671 14.6666H26.3334C26.7936 14.6666 27.1667 15.0397 27.1667 15.5V24.6666C27.1667 25.1269 26.7936 25.5 26.3334 25.5H9.66671C9.20647 25.5 8.83337 25.1269 8.83337 24.6666V15.5ZM10.5 16.3333V23.8333H25.5V16.3333H10.5Z" fill="#05449E"/>
<rect x="10.4988" y="14.6785" width="14.9964" height="1.65487" fill="#E3F1FD"/>
</svg>
