<svg width="36" height="36" viewBox="0 0 36 36" fill="none" xmlns="http://www.w3.org/2000/svg">
<path d="M0 18C0 8.05888 8.05888 0 18 0C27.9411 0 36 8.05888 36 18C36 27.9411 27.9411 36 18 36C8.05888 36 0 27.9411 0 18Z" fill="#E3FDF1"/>
<rect x="10.6338" y="13.627" width="14.4942" height="11.9235" fill="#47C48A"/>
<path fill-rule="evenodd" clip-rule="evenodd" d="M12.1932 9.58519C12.3505 9.37426 12.5981 9.25 12.8613 9.25H23.1388C23.4019 9.25 23.6495 9.37426 23.8068 9.58519L26.163 12.7451C26.2178 12.8169 26.2611 12.8977 26.2903 12.9851C26.3202 13.0741 26.3344 13.1666 26.3333 13.2586V25.0833C26.3333 25.5254 26.1577 25.9493 25.8452 26.2618C25.5326 26.5744 25.1087 26.75 24.6667 26.75H11.3333C10.8913 26.75 10.4674 26.5744 10.1548 26.2618C9.84227 25.9493 9.66668 25.5254 9.66668 25.0833V13.2586C9.66566 13.1666 9.6798 13.0741 9.70967 12.9851C9.73894 12.8977 9.78228 12.8168 9.837 12.7451L12.1932 9.58519ZM22.7206 10.9167L23.8391 12.4167H12.1609L13.2794 10.9167H22.7206ZM11.3333 14.0833V25.0833H24.6667V14.0833H11.3333Z" fill="#17593B"/>
<path d="M15.685 16C15.685 15.5397 15.3119 15.1666 14.8516 15.1666C14.3914 15.1666 14.0183 15.5397 14.0183 16C14.0183 18.2044 15.7964 20 18 20C20.2037 20 21.9812 18.2042 21.9812 16C21.9812 15.5397 21.6081 15.1666 21.1479 15.1666C20.6877 15.1666 20.3146 15.5397 20.3146 16C20.3146 17.2932 19.2738 18.3333 18 18.3333C16.726 18.3333 15.685 17.2931 15.685 16Z" fill="#E3FDF1"/>
</svg>
