<svg width="36" height="36" viewBox="0 0 36 36" fill="none" xmlns="http://www.w3.org/2000/svg">
<circle cx="18" cy="18" r="18" fill="#858585"/>
<g filter="url(#filter0_iiii)">
<rect x="8" y="8" width="20" height="20" rx="2" fill="#E7E7E7"/>
</g>
<mask id="mask0" style="mask-type:alpha" maskUnits="userSpaceOnUse" x="18" y="16" width="6" height="6">
<path fill-rule="evenodd" clip-rule="evenodd" d="M18.202 16.6883H23.0367V21.5313H18.202V16.6883Z" fill="white"/>
</mask>
<g mask="url(#mask0)">
<path fill-rule="evenodd" clip-rule="evenodd" d="M22.6369 19.2342C22.573 20.2907 21.6955 21.1274 20.6239 21.1274C19.5087 21.1274 18.6062 20.2243 18.6062 19.1097C18.6062 18.2144 19.1885 17.4554 19.9955 17.1913C20.0103 17.0931 20.0179 16.9926 20.0179 16.8901C20.0179 16.848 20.0163 16.8067 20.0144 16.7656C18.9717 17.0358 18.202 17.9829 18.202 19.1097C18.202 20.4467 19.2857 21.5313 20.6239 21.5313C21.8953 21.5313 22.9386 20.5498 23.0367 19.3025C22.8999 19.2906 22.7663 19.2677 22.6369 19.2342ZM20.6239 17.0918C21.6351 17.0918 22.4735 17.8368 22.6191 18.8087C22.7521 18.8519 22.8912 18.8819 23.0351 18.8973C22.9273 17.6593 21.8886 16.6883 20.6239 16.6883C20.5531 16.6883 20.4832 16.6915 20.4146 16.6973C20.419 16.7609 20.4217 16.8251 20.4217 16.8901C20.4217 16.9618 20.4181 17.0328 20.4126 17.1027C20.4818 17.0954 20.5521 17.0918 20.6239 17.0918Z" fill="#00A651"/>
</g>
<mask id="mask1" style="mask-type:alpha" maskUnits="userSpaceOnUse" x="12" y="16" width="6" height="6">
<path fill-rule="evenodd" clip-rule="evenodd" d="M12.9554 16.6884H17.7906V21.5314H12.9554V16.6884Z" fill="white"/>
</mask>
<g mask="url(#mask1)">
<path fill-rule="evenodd" clip-rule="evenodd" d="M17.7906 19.3024C17.6925 20.5499 16.6497 21.5314 15.3773 21.5314C14.0394 21.5314 12.9554 20.4468 12.9554 19.1096C12.9554 17.983 13.7253 17.0359 14.7681 16.7657C14.7699 16.8066 14.7713 16.8481 14.7713 16.89C14.7713 16.9927 14.7636 17.0932 14.749 17.1914C13.9421 17.4555 13.3599 18.2145 13.3599 19.1096C13.3599 20.2242 14.2622 21.1275 15.3773 21.1275C16.4494 21.1275 17.3269 20.2907 17.3908 19.2342C17.5197 19.2677 17.6539 19.2907 17.7906 19.3024ZM15.166 17.1028C15.1718 17.0329 15.1754 16.9619 15.1754 16.8901C15.1754 16.8252 15.1727 16.761 15.1683 16.6974C15.2369 16.6916 15.3068 16.6884 15.3774 16.6884C16.6422 16.6884 17.6821 17.6594 17.7899 18.8974C17.6451 18.8819 17.5056 18.852 17.3728 18.8088C17.2272 17.8369 16.3886 17.0917 15.3774 17.0917C15.3059 17.0917 15.2353 17.0955 15.166 17.1028Z" fill="#FCB131"/>
</g>
<mask id="mask2" style="mask-type:alpha" maskUnits="userSpaceOnUse" x="20" y="14" width="6" height="6">
<path fill-rule="evenodd" clip-rule="evenodd" d="M20.8318 14.4686H25.6677V19.3116H20.8318V14.4686Z" fill="white"/>
</mask>
<g mask="url(#mask2)">
<path fill-rule="evenodd" clip-rule="evenodd" d="M25.6677 16.8902C25.6677 18.2275 24.5839 19.3117 23.2462 19.3117C21.98 19.3117 20.9416 18.3408 20.8338 17.1027C20.9786 17.1178 21.1172 17.1481 21.2507 17.1914C21.3959 18.163 22.2337 18.9082 23.2462 18.9082C24.3604 18.9082 25.2638 18.0045 25.2638 16.8902C25.2638 15.776 24.3604 14.8722 23.2462 14.8722C22.1731 14.8722 21.2963 15.7091 21.2324 16.7658C21.1025 16.7324 20.9695 16.7093 20.8318 16.6973C20.9309 15.45 21.9736 14.4686 23.2462 14.4686C24.5839 14.4686 25.6677 15.5529 25.6677 16.8902Z" fill="#EE334E"/>
</g>
<mask id="mask3" style="mask-type:alpha" maskUnits="userSpaceOnUse" x="15" y="14" width="6" height="6">
<path fill-rule="evenodd" clip-rule="evenodd" d="M15.5862 14.4686H20.4216V19.3116H15.5862V14.4686Z" fill="white"/>
</mask>
<g mask="url(#mask3)">
<path fill-rule="evenodd" clip-rule="evenodd" d="M17.9997 18.9083C16.9883 18.9083 16.1497 18.163 16.0042 17.1914C15.8711 17.1482 15.7323 17.1178 15.5875 17.1028C15.6954 18.3409 16.7338 19.3117 17.9997 19.3117C18.0708 19.3117 18.1408 19.3088 18.2097 19.3026C18.205 19.2394 18.2021 19.1749 18.2021 19.1098C18.2021 19.0382 18.2058 18.9672 18.2117 18.8975C18.142 18.9046 18.0714 18.9083 17.9997 18.9083ZM17.9997 14.4686C16.7272 14.4686 15.6847 15.45 15.5862 16.6973C15.7233 16.7093 15.856 16.7324 15.9863 16.7658C16.0497 15.7091 16.9272 14.8722 17.9997 14.8722C19.1147 14.8722 20.0179 15.776 20.0179 16.8902C20.0179 17.7852 19.4353 18.5446 18.6281 18.8089C18.6137 18.9067 18.6062 19.0074 18.6062 19.1097C18.6062 19.1518 18.6065 19.1934 18.6094 19.2342C19.652 18.9641 20.4216 18.0171 20.4216 16.8902C20.4216 15.5529 19.3378 14.4686 17.9997 14.4686Z" fill="black"/>
</g>
<mask id="mask4" style="mask-type:alpha" maskUnits="userSpaceOnUse" x="10" y="14" width="6" height="6">
<path fill-rule="evenodd" clip-rule="evenodd" d="M10.3322 14.4686H15.175V19.3116H10.3322V14.4686Z" fill="white"/>
</mask>
<g mask="url(#mask4)">
<path fill-rule="evenodd" clip-rule="evenodd" d="M15.1741 16.8902C15.1741 15.5529 14.0903 14.4686 12.7522 14.4686C11.4155 14.4686 10.3312 15.5529 10.3312 16.8902C10.3312 18.2275 11.4155 19.3117 12.7522 19.3117C12.8232 19.3117 12.8925 19.3088 12.9618 19.3027C12.9571 19.2394 12.9542 19.1749 12.9542 19.1097C12.9542 19.0382 12.958 18.9671 12.9636 18.8975C12.8941 18.9046 12.8238 18.9082 12.7522 18.9082C11.6379 18.9082 10.7345 18.0045 10.7345 16.8902C10.7345 15.776 11.6379 14.8722 12.7522 14.8722C13.8672 14.8722 14.77 15.776 14.77 16.8902C14.77 17.7854 14.1874 18.5446 13.3804 18.8089C13.3661 18.9067 13.3587 19.0074 13.3587 19.1097C13.3587 19.1518 13.359 19.1934 13.3617 19.2342C14.4044 18.9641 15.1741 18.0171 15.1741 16.8902Z" fill="#0081C8"/>
</g>
<defs>
<filter id="filter0_iiii" x="8" y="8" width="20" height="20" filterUnits="userSpaceOnUse" color-interpolation-filters="sRGB">
<feFlood flood-opacity="0" result="BackgroundImageFix"/>
<feBlend mode="normal" in="SourceGraphic" in2="BackgroundImageFix" result="shape"/>
<feColorMatrix in="SourceAlpha" type="matrix" values="0 0 0 0 0 0 0 0 0 0 0 0 0 0 0 0 0 0 127 0" result="hardAlpha"/>
<feOffset dx="-1"/>
<feComposite in2="hardAlpha" operator="arithmetic" k2="-1" k3="1"/>
<feColorMatrix type="matrix" values="0 0 0 0 0.945098 0 0 0 0 0.945098 0 0 0 0 0.945098 0 0 0 1 0"/>
<feBlend mode="normal" in2="shape" result="effect1_innerShadow"/>
<feColorMatrix in="SourceAlpha" type="matrix" values="0 0 0 0 0 0 0 0 0 0 0 0 0 0 0 0 0 0 127 0" result="hardAlpha"/>
<feOffset dy="1"/>
<feComposite in2="hardAlpha" operator="arithmetic" k2="-1" k3="1"/>
<feColorMatrix type="matrix" values="0 0 0 0 1 0 0 0 0 1 0 0 0 0 1 0 0 0 1 0"/>
<feBlend mode="normal" in2="effect1_innerShadow" result="effect2_innerShadow"/>
<feColorMatrix in="SourceAlpha" type="matrix" values="0 0 0 0 0 0 0 0 0 0 0 0 0 0 0 0 0 0 127 0" result="hardAlpha"/>
<feOffset dx="1"/>
<feComposite in2="hardAlpha" operator="arithmetic" k2="-1" k3="1"/>
<feColorMatrix type="matrix" values="0 0 0 0 1 0 0 0 0 1 0 0 0 0 1 0 0 0 1 0"/>
<feBlend mode="normal" in2="effect2_innerShadow" result="effect3_innerShadow"/>
<feColorMatrix in="SourceAlpha" type="matrix" values="0 0 0 0 0 0 0 0 0 0 0 0 0 0 0 0 0 0 127 0" result="hardAlpha"/>
<feOffset dy="-1"/>
<feComposite in2="hardAlpha" operator="arithmetic" k2="-1" k3="1"/>
<feColorMatrix type="matrix" values="0 0 0 0 0.945833 0 0 0 0 0.945833 0 0 0 0 0.945833 0 0 0 1 0"/>
<feBlend mode="normal" in2="effect3_innerShadow" result="effect4_innerShadow"/>
</filter>
</defs>
</svg>
