<svg width="36" height="36" viewBox="0 0 36 36" fill="none" xmlns="http://www.w3.org/2000/svg">
<circle cx="18" cy="18" r="18" fill="#A4ADD6"/>
<g filter="url(#filter0_iiii)">
<rect x="8" y="8" width="20" height="20" rx="2" fill="#202B5A"/>
</g>
<path fill-rule="evenodd" clip-rule="evenodd" d="M21.0038 14.8169L21.443 14.0562L20.6823 13.6169L20.243 14.3776L21.0038 14.8169Z" fill="white"/>
<path fill-rule="evenodd" clip-rule="evenodd" d="M20.8405 12.1343V13.0127H21.7189V12.1343H20.8405Z" fill="white"/>
<path fill-rule="evenodd" clip-rule="evenodd" d="M19.7994 19.3002L20.8385 18.7002L20.6777 18.4219L19.6385 19.0218L19.7994 19.3002Z" fill="white"/>
<path fill-rule="evenodd" clip-rule="evenodd" d="M22.3226 15.579H22.6442V14.3791H22.3226V15.579Z" fill="white"/>
<path fill-rule="evenodd" clip-rule="evenodd" d="M21.4406 17.6587L21.719 17.8195L22.319 16.7804L22.0405 16.6196L21.4406 17.6587Z" fill="white"/>
<path fill-rule="evenodd" clip-rule="evenodd" d="M19.0399 17.6587V18.8587H19.3615V17.6587H19.0399Z" fill="white"/>
<path fill-rule="evenodd" clip-rule="evenodd" d="M20.6812 18.4222L21.4419 17.6614L21.0027 17.2223L20.2419 17.983L20.6812 18.4222Z" fill="white"/>
<path fill-rule="evenodd" clip-rule="evenodd" d="M20.6812 16.0174L21.4419 15.2566L21.0027 14.8174L20.2419 15.5781L20.6812 16.0174Z" fill="white"/>
<path fill-rule="evenodd" clip-rule="evenodd" d="M20.2402 16.7807L19.6402 16.62L19.3618 17.6591L19.9618 17.8199L20.2402 16.7807Z" fill="white"/>
<path fill-rule="evenodd" clip-rule="evenodd" d="M22.0451 16.6176L22.3234 15.5785L21.7235 15.4177L21.4451 16.4568L22.0451 16.6176Z" fill="white"/>
<path fill-rule="evenodd" clip-rule="evenodd" d="M21.7226 13.0124L21.4442 14.0516L22.0442 14.2123L22.3226 13.1731L21.7226 13.0124Z" fill="white"/>
<path fill-rule="evenodd" clip-rule="evenodd" d="M19.7994 12.7345L19.6385 13.3345L20.6777 13.6129L20.8385 13.013L19.7994 12.7345Z" fill="white"/>
<path fill-rule="evenodd" clip-rule="evenodd" d="M16.3583 12.4576H15.4799V13.336H16.3583V12.4576Z" fill="white"/>
<path fill-rule="evenodd" clip-rule="evenodd" d="M14.1158 13.935L14.8766 13.4958L14.4374 12.7351L13.6766 13.1742L14.1158 13.935Z" fill="white"/>
<path fill-rule="evenodd" clip-rule="evenodd" d="M20.8405 11.2563L19.8014 10.6564L19.6406 10.9348L20.6798 11.5348L20.8405 11.2563Z" fill="white"/>
<path fill-rule="evenodd" clip-rule="evenodd" d="M16.198 10.6561L15.1588 11.2561L15.3196 11.5345L16.3588 10.9345L16.198 10.6561Z" fill="white"/>
<path fill-rule="evenodd" clip-rule="evenodd" d="M18.6013 10.3322H17.4014V10.6538H18.6013V10.3322Z" fill="white"/>
<path fill-rule="evenodd" clip-rule="evenodd" d="M20.6814 11.8565L19.6422 12.4565L19.803 12.735L20.8421 12.135L20.6814 11.8565Z" fill="white"/>
<path fill-rule="evenodd" clip-rule="evenodd" d="M19.64 10.9339L18.6008 10.6555L18.4401 11.2555L19.4792 11.5338L19.64 10.9339Z" fill="white"/>
<path fill-rule="evenodd" clip-rule="evenodd" d="M17.5576 12.1343L16.5184 11.8559L16.3577 12.4559L17.3968 12.7343L17.5576 12.1343Z" fill="white"/>
<path fill-rule="evenodd" clip-rule="evenodd" d="M18.4397 12.1343L18.6005 12.7343L19.6396 12.4559L19.4789 11.8559L18.4397 12.1343Z" fill="white"/>
<path fill-rule="evenodd" clip-rule="evenodd" d="M17.3985 10.6561L16.3594 10.9345L16.5201 11.5345L17.5593 11.2561L17.3985 10.6561Z" fill="white"/>
<path fill-rule="evenodd" clip-rule="evenodd" d="M15.3161 11.8565L14.2769 12.135L14.4376 12.735L15.4768 12.4565L15.3161 11.8565Z" fill="white"/>
<path fill-rule="evenodd" clip-rule="evenodd" d="M15.1569 14.5391L15.7568 14.3783L15.4784 13.3392L14.8784 13.4999L15.1569 14.5391Z" fill="white"/>
<path fill-rule="evenodd" clip-rule="evenodd" d="M16.635 17.6587L17.0742 18.4195L17.835 17.9803L17.3958 17.2195L16.635 17.6587Z" fill="white"/>
<path fill-rule="evenodd" clip-rule="evenodd" d="M19.0398 18.8592L18.2791 18.42L17.8398 19.1808L18.6005 19.6199L19.0398 18.8592Z" fill="white"/>
<path fill-rule="evenodd" clip-rule="evenodd" d="M13.6762 14.3752H13.3546V15.5751H13.6762V14.3752Z" fill="white"/>
<path fill-rule="evenodd" clip-rule="evenodd" d="M15.1567 18.7L16.1959 19.2999L16.3567 19.0216L15.3175 18.4216L15.1567 18.7Z" fill="white"/>
<path fill-rule="evenodd" clip-rule="evenodd" d="M13.6746 16.7807L14.2745 17.8199L14.553 17.6591L13.953 16.62L13.6746 16.7807Z" fill="white"/>
<path fill-rule="evenodd" clip-rule="evenodd" d="M15.1568 14.5392L14.1177 13.9392L13.9569 14.2176L14.996 14.8176L15.1568 14.5392Z" fill="white"/>
<path fill-rule="evenodd" clip-rule="evenodd" d="M14.5566 16.4583L14.2782 15.4191L13.6782 15.576L13.9567 16.6152L14.5566 16.4583Z" fill="white"/>
<path fill-rule="evenodd" clip-rule="evenodd" d="M15.757 16.7807L16.0354 17.8199L16.6354 17.6591L16.3569 16.62L15.757 16.7807Z" fill="white"/>
<path fill-rule="evenodd" clip-rule="evenodd" d="M15.757 15.5764L14.9963 14.8156L14.5571 15.2549L15.3178 16.0156L15.757 15.5764Z" fill="white"/>
<path fill-rule="evenodd" clip-rule="evenodd" d="M14.5566 17.6587L15.3174 18.4195L15.7566 17.9803L14.9958 17.2195L14.5566 17.6587Z" fill="white"/>
<path fill-rule="evenodd" clip-rule="evenodd" d="M16.635 18.8592L17.3958 19.6199L17.835 19.1808L17.0742 18.42L16.635 18.8592Z" fill="white"/>
<path fill-rule="evenodd" clip-rule="evenodd" d="M19.0399 17.6587L18.6007 17.2195L17.84 17.9803L18.2792 18.4195L19.0399 17.6587Z" fill="white"/>
<path fill-rule="evenodd" clip-rule="evenodd" d="M20.6812 16.0173L20.2419 16.7781L21.0027 17.2172L21.4419 16.4565L20.6812 16.0173Z" fill="white"/>
<path fill-rule="evenodd" clip-rule="evenodd" d="M19.9627 17.8181L19.3627 18.8572L19.6411 19.018L20.2411 17.9788L19.9627 17.8181Z" fill="white"/>
<path fill-rule="evenodd" clip-rule="evenodd" d="M21.4406 15.2539L21.719 15.4147L22.3189 14.3755L22.0405 14.2148L21.4406 15.2539Z" fill="white"/>
<path fill-rule="evenodd" clip-rule="evenodd" d="M18.4407 11.2538H17.5583V12.1321H18.4367V11.2538H18.4407Z" fill="white"/>
<path fill-rule="evenodd" clip-rule="evenodd" d="M19.4797 11.8577H20.6796V11.5361H19.4797V11.8577Z" fill="white"/>
<path fill-rule="evenodd" clip-rule="evenodd" d="M16.5191 11.5323H15.3152V11.8577H16.5152V11.5323H16.5191Z" fill="white"/>
<path fill-rule="evenodd" clip-rule="evenodd" d="M15.757 16.7807L15.3178 16.02L14.5571 16.4592L14.9963 17.22L15.757 16.7807Z" fill="white"/>
<path fill-rule="evenodd" clip-rule="evenodd" d="M14.5566 15.2539L13.9567 14.2148L13.6782 14.3755L14.2782 15.4147L14.5566 15.2539Z" fill="white"/>
<path fill-rule="evenodd" clip-rule="evenodd" d="M15.757 17.9812L16.3569 19.0204L16.6354 18.8595L16.0354 17.8204L15.757 17.9812Z" fill="white"/>
<path fill-rule="evenodd" clip-rule="evenodd" d="M16.7474 23.6186C16.7474 23.0265 16.2689 22.5481 15.6769 22.5481C15.0847 22.5481 14.6063 23.0265 14.6063 23.6186C14.6063 24.2108 15.0847 24.6891 15.6769 24.6891C15.7082 24.6891 15.7396 24.6891 15.771 24.6853C15.767 24.6578 15.767 24.6304 15.767 24.599C15.767 24.5676 15.767 24.5363 15.771 24.5048C15.7396 24.5088 15.7082 24.5088 15.6769 24.5088C15.1828 24.5088 14.7828 24.1088 14.7828 23.6147C14.7828 23.1207 15.1828 22.7207 15.6769 22.7207C16.1709 22.7207 16.5709 23.1207 16.5709 23.6147C16.5709 24.0108 16.3121 24.3481 15.9552 24.4617C15.9474 24.5048 15.9435 24.548 15.9435 24.5951V24.65C16.4062 24.5363 16.7474 24.1167 16.7474 23.6186Z" fill="white"/>
<path fill-rule="evenodd" clip-rule="evenodd" d="M21.3883 23.6187C21.3883 24.2108 20.9098 24.6891 20.3177 24.6891C19.757 24.6891 19.2981 24.2578 19.2511 23.7128C19.3139 23.7206 19.3765 23.7324 19.4354 23.752C19.4982 24.1834 19.8707 24.5128 20.3177 24.5128C20.8118 24.5128 21.2118 24.1128 21.2118 23.6187C21.2118 23.1245 20.8118 22.7246 20.3177 22.7246C19.8432 22.7246 19.455 23.0932 19.4276 23.5598C19.3688 23.5442 19.3099 23.5363 19.2511 23.5285C19.2942 22.9755 19.757 22.5442 20.3177 22.5442C20.9059 22.5481 21.3883 23.0265 21.3883 23.6187Z" fill="white"/>
<path fill-rule="evenodd" clip-rule="evenodd" d="M19.1571 23.7057C19.6041 23.7057 19.9766 24.0351 20.0394 24.4664C20.0981 24.486 20.161 24.4978 20.2236 24.5056C20.1766 23.9567 19.7178 23.5293 19.1571 23.5293C19.1257 23.5293 19.0943 23.5293 19.0629 23.5332C19.0669 23.5606 19.0669 23.5881 19.0669 23.6194C19.0669 23.6508 19.0669 23.6822 19.0629 23.7135C19.0943 23.7097 19.1257 23.7057 19.1571 23.7057ZM20.0472 24.6547C20.0197 25.1213 19.6316 25.4899 19.1571 25.4899C18.663 25.4899 18.263 25.09 18.263 24.5959C18.263 24.1998 18.5218 23.8626 18.8787 23.7489C18.8865 23.7057 18.8865 23.6626 18.8865 23.6156V23.5606C18.4238 23.6783 18.0865 24.0979 18.0865 24.5959C18.0865 25.188 18.565 25.6664 19.1571 25.6664C19.7217 25.6664 20.1805 25.2311 20.2236 24.6821C20.161 24.6782 20.1021 24.6704 20.0472 24.6547Z" fill="white"/>
<path fill-rule="evenodd" clip-rule="evenodd" d="M16.7419 23.711C16.7459 23.6797 16.7459 23.6483 16.7459 23.6169C16.7459 23.5894 16.7459 23.5581 16.7419 23.5306C16.7733 23.5267 16.8046 23.5267 16.836 23.5267C17.3968 23.5267 17.8556 23.9541 17.9027 24.5031C17.8399 24.4953 17.7772 24.4835 17.7183 24.4639C17.6556 24.0326 17.283 23.7032 16.836 23.7032L16.7419 23.711ZM17.9027 24.6835C17.8595 25.2364 17.3968 25.6678 16.836 25.6678C16.2439 25.6678 15.7655 25.1894 15.7655 24.5972C15.7655 24.0992 16.1067 23.6797 16.5655 23.562V23.6169C16.5655 23.664 16.5615 23.7071 16.5537 23.7502C16.1969 23.8679 15.9381 24.2012 15.9381 24.5972C15.9381 25.0913 16.338 25.4913 16.8321 25.4913C17.3066 25.4913 17.6948 25.1227 17.7223 24.656C17.785 24.6678 17.8438 24.6795 17.9027 24.6835Z" fill="white"/>
<path fill-rule="evenodd" clip-rule="evenodd" d="M17.9979 22.5477C17.4371 22.5477 16.9744 22.9829 16.9313 23.5319C16.9901 23.5359 17.0489 23.5476 17.1078 23.5633C17.1352 23.0966 17.5233 22.728 17.9979 22.728C18.4919 22.728 18.888 23.1281 18.888 23.6222C18.888 24.0182 18.6292 24.3554 18.2724 24.4691C18.2645 24.5123 18.2606 24.5554 18.2606 24.6025V24.6574C18.7233 24.5397 19.0606 24.1201 19.0606 23.6222C19.0684 23.0261 18.586 22.5477 17.9979 22.5477ZM17.9979 24.5084C17.5508 24.5084 17.1783 24.179 17.1156 23.7476C17.0568 23.728 16.994 23.7163 16.9313 23.7084C16.9783 24.2574 17.4371 24.6848 17.9979 24.6848C18.0292 24.6848 18.0606 24.6848 18.092 24.6809C18.0881 24.6534 18.0881 24.626 18.0881 24.5946C18.0881 24.5633 18.0881 24.5319 18.092 24.5005C18.0606 24.5084 18.0292 24.5084 17.9979 24.5084Z" fill="white"/>
<path fill-rule="evenodd" clip-rule="evenodd" d="M13.5041 21.824H13.2807V20.6397H12.9552V20.4319H13.8296V20.6397H13.5041V21.824Z" fill="white"/>
<path fill-rule="evenodd" clip-rule="evenodd" d="M16.318 21.8241H16.0513L15.718 21.2241L15.5926 21.4006V21.8241H15.369V20.4359H15.5926V21.0594H15.5965L16.0199 20.432H16.2749L15.867 21.0358L16.318 21.8241Z" fill="white"/>
<path fill-rule="evenodd" clip-rule="evenodd" d="M17.0704 21.824H16.8469V21.224L16.4783 20.4319H16.7097L16.9567 20.9769H16.9645L17.2116 20.4319H17.4429L17.0743 21.224V21.824H17.0704Z" fill="white"/>
<path fill-rule="evenodd" clip-rule="evenodd" d="M19.8322 21.8239H19.0519V21.624L19.0557 21.62L19.5734 20.9534C19.5969 20.9221 19.6165 20.8868 19.6165 20.824C19.6165 20.7103 19.5303 20.6437 19.4479 20.6437C19.3969 20.6437 19.3538 20.6594 19.3225 20.6907C19.2911 20.7221 19.2715 20.773 19.2675 20.8476V20.8593H19.0519V20.8476C19.0519 20.7299 19.095 20.6162 19.1656 20.5417C19.2362 20.4672 19.3263 20.428 19.4322 20.428C19.5499 20.428 19.6479 20.4672 19.7185 20.5417C19.793 20.6162 19.8283 20.7142 19.8283 20.8319C19.8283 20.9299 19.8009 21.0083 19.7303 21.0985L19.3381 21.6083L19.342 21.6122H19.8322V21.8239Z" fill="white"/>
<path fill-rule="evenodd" clip-rule="evenodd" d="M21.9951 21.8239H21.2147V21.624L21.2186 21.62L21.7363 20.9534C21.7598 20.9221 21.7794 20.8868 21.7794 20.824C21.7794 20.7103 21.6893 20.6437 21.6108 20.6437C21.5598 20.6437 21.5167 20.6594 21.4853 20.6907C21.454 20.7221 21.4343 20.773 21.4305 20.8476V20.8593H21.2147V20.8476C21.2147 20.7299 21.2579 20.6162 21.3285 20.5417C21.3991 20.4672 21.4892 20.428 21.5951 20.428C21.7167 20.428 21.8108 20.4672 21.8814 20.5417C21.9559 20.6162 21.9912 20.7142 21.9912 20.8319C21.9912 20.9299 21.9637 21.0083 21.8932 21.0985L21.501 21.6083L21.5049 21.6122H21.9951V21.8239Z" fill="white"/>
<path fill-rule="evenodd" clip-rule="evenodd" d="M18.038 21.8331C17.7832 21.8331 17.6028 21.6567 17.6028 21.4096V20.8371C17.6028 20.5901 17.7832 20.4175 18.038 20.4175C18.2969 20.4175 18.4733 20.5901 18.4733 20.8371V21.4096C18.4733 21.6567 18.289 21.8331 18.038 21.8331ZM18.038 20.6411C17.9086 20.6411 17.8145 20.7391 17.8145 20.8725V21.3744C17.8145 21.5194 17.9047 21.6175 18.038 21.6175C18.1714 21.6175 18.2615 21.5194 18.2615 21.3744V20.8725C18.2615 20.7352 18.1674 20.6411 18.038 20.6411Z" fill="white"/>
<path fill-rule="evenodd" clip-rule="evenodd" d="M14.5284 21.8331C14.2735 21.8331 14.0931 21.6567 14.0931 21.4096V20.8371C14.0931 20.5901 14.2735 20.4175 14.5284 20.4175C14.7872 20.4175 14.9637 20.5901 14.9637 20.8371V21.4096C14.9637 21.6567 14.7794 21.8331 14.5284 21.8331ZM14.5284 20.6411C14.399 20.6411 14.3049 20.7391 14.3049 20.8725V21.3744C14.3049 21.5194 14.3951 21.6175 14.5284 21.6175C14.6617 21.6175 14.752 21.5194 14.752 21.3744V20.8725C14.752 20.7352 14.6579 20.6411 14.5284 20.6411Z" fill="white"/>
<path fill-rule="evenodd" clip-rule="evenodd" d="M20.5398 21.8331C20.3947 21.8331 20.1516 21.7469 20.1516 21.4292V20.8254C20.1516 20.5822 20.3085 20.4214 20.5398 20.4214C20.7712 20.4214 20.928 20.5822 20.928 20.8254V21.4292C20.928 21.7469 20.6849 21.8331 20.5398 21.8331ZM20.5398 20.6411C20.3947 20.6411 20.3673 20.7509 20.3673 20.845V21.4135C20.3673 21.5508 20.4261 21.6175 20.5398 21.6175C20.6575 21.6175 20.7123 21.5508 20.7123 21.4135V20.845C20.7123 20.7509 20.6849 20.6411 20.5398 20.6411Z" fill="white"/>
<path fill-rule="evenodd" clip-rule="evenodd" d="M22.6567 21.8331C22.5116 21.8331 22.2684 21.7469 22.2684 21.4292V20.8254C22.2684 20.5822 22.4253 20.4214 22.6567 20.4214C22.888 20.4214 23.0448 20.5822 23.0448 20.8254V21.4292C23.0448 21.7469 22.8017 21.8331 22.6567 21.8331ZM22.6567 20.6411C22.5116 20.6411 22.4841 20.7509 22.4841 20.845V21.4135C22.4841 21.5508 22.539 21.6175 22.6567 21.6175C22.7743 21.6175 22.8292 21.5508 22.8292 21.4135V20.845C22.8292 20.7509 22.8017 20.6411 22.6567 20.6411Z" fill="white"/>
<path fill-rule="evenodd" clip-rule="evenodd" d="M21.3835 18.3885H21.4855V18.6473H21.5208V18.3885H21.6228V18.365H21.3875V18.3885H21.3835Z" fill="white"/>
<path fill-rule="evenodd" clip-rule="evenodd" d="M21.8708 18.3611L21.7884 18.565H21.7845L21.6943 18.3611H21.6552V18.6473H21.6826V18.4238L21.761 18.6042H21.7963L21.8708 18.4199H21.8748V18.6512H21.9022V18.365H21.8708V18.3611Z" fill="white"/>
<defs>
<filter id="filter0_iiii" x="8" y="8" width="20" height="20" filterUnits="userSpaceOnUse" color-interpolation-filters="sRGB">
<feFlood flood-opacity="0" result="BackgroundImageFix"/>
<feBlend mode="normal" in="SourceGraphic" in2="BackgroundImageFix" result="shape"/>
<feColorMatrix in="SourceAlpha" type="matrix" values="0 0 0 0 0 0 0 0 0 0 0 0 0 0 0 0 0 0 127 0" result="hardAlpha"/>
<feOffset dx="-1"/>
<feComposite in2="hardAlpha" operator="arithmetic" k2="-1" k3="1"/>
<feColorMatrix type="matrix" values="0 0 0 0 0.227865 0 0 0 0 0.283428 0 0 0 0 0.520833 0 0 0 1 0"/>
<feBlend mode="normal" in2="shape" result="effect1_innerShadow"/>
<feColorMatrix in="SourceAlpha" type="matrix" values="0 0 0 0 0 0 0 0 0 0 0 0 0 0 0 0 0 0 127 0" result="hardAlpha"/>
<feOffset dy="1"/>
<feComposite in2="hardAlpha" operator="arithmetic" k2="-1" k3="1"/>
<feColorMatrix type="matrix" values="0 0 0 0 0.247059 0 0 0 0 0.301961 0 0 0 0 0.537255 0 0 0 1 0"/>
<feBlend mode="normal" in2="effect1_innerShadow" result="effect2_innerShadow"/>
<feColorMatrix in="SourceAlpha" type="matrix" values="0 0 0 0 0 0 0 0 0 0 0 0 0 0 0 0 0 0 127 0" result="hardAlpha"/>
<feOffset dx="1"/>
<feComposite in2="hardAlpha" operator="arithmetic" k2="-1" k3="1"/>
<feColorMatrix type="matrix" values="0 0 0 0 0.248594 0 0 0 0 0.303386 0 0 0 0 0.5375 0 0 0 1 0"/>
<feBlend mode="normal" in2="effect2_innerShadow" result="effect3_innerShadow"/>
<feColorMatrix in="SourceAlpha" type="matrix" values="0 0 0 0 0 0 0 0 0 0 0 0 0 0 0 0 0 0 127 0" result="hardAlpha"/>
<feOffset dy="-1"/>
<feComposite in2="hardAlpha" operator="arithmetic" k2="-1" k3="1"/>
<feColorMatrix type="matrix" values="0 0 0 0 0.227451 0 0 0 0 0.282353 0 0 0 0 0.521569 0 0 0 1 0"/>
<feBlend mode="normal" in2="effect3_innerShadow" result="effect4_innerShadow"/>
</filter>
</defs>
</svg>
