<svg width="36" height="36" viewBox="0 0 36 36" fill="none" xmlns="http://www.w3.org/2000/svg">
<circle cx="18" cy="18" r="18" fill="#EDD699"/>
<g filter="url(#filter0_iiii)">
<rect x="8" y="8" width="20" height="20" rx="2" fill="#A89666"/>
</g>
<path d="M11.3063 20.5365H11.7388V21.8547H12.127V20.5365H12.5595V23.7438H12.127V22.2315H11.7388V23.7438H11.3063V20.5365Z" fill="#FFFFFB"/>
<path d="M13.3036 20.5365V23.7438L14.3177 23.7438V23.3678H13.7511V22.2925H14.3192V21.8544H13.7511V20.9126H14.3177V20.5365H13.3036Z" fill="#FFFFFB"/>
<path d="M23.6781 20.5365V23.7438L24.6922 23.7438V23.3678H24.1255V22.2925H24.6937V21.8544H24.1255V20.9126H24.6922V20.5365H23.6781Z" fill="#FFFFFB"/>
<path d="M16.9916 20.5365H17.439V23.7438H16.9916V20.5365Z" fill="#FFFFFB"/>
<path d="M18.0124 20.5365V20.9752H18.516V23.7438H18.9635V20.9752H19.4671V20.5365H18.0124Z" fill="#FFFFFB"/>
<path fill-rule="evenodd" clip-rule="evenodd" d="M16.189 20.8496C16.2004 20.8886 16.2066 20.9297 16.2066 20.9723H16.2059L16.2066 20.9725L16.2066 21.8504C16.2066 21.8537 16.2065 21.8569 16.2064 21.8602C16.2054 21.9069 16.197 21.9518 16.1824 21.9938C16.1818 21.9955 16.1812 21.9971 16.1806 21.9988C16.1457 22.0954 16.0776 22.176 15.9901 22.2271L16.3483 23.7438H15.9009L15.5566 22.2862H15.4523V23.7438H15.0048V20.5365H15.7708C15.9688 20.5365 16.136 20.6687 16.189 20.8496L16.189 20.8496ZM15.6362 20.9123C15.7402 20.9123 15.8245 20.9966 15.8245 21.1007V21.7268C15.8245 21.8308 15.7402 21.9152 15.6362 21.9152H15.3866V20.9123H15.6362Z" fill="#FFFFFB"/>
<path fill-rule="evenodd" clip-rule="evenodd" d="M20.2201 23.7438H19.7626L20.2332 20.5365H20.7527L21.2233 23.7438H20.7657L20.7013 23.1085H20.2846L20.2201 23.7438ZM20.3227 22.7323H20.6631L20.4929 21.0546L20.3227 22.7323Z" fill="#FFFFFB"/>
<path d="M22.3773 20.8812C22.2538 20.8812 22.1537 20.9813 22.1537 21.1048L22.1539 21.1048V23.1839H22.1537C22.1551 23.3062 22.2546 23.405 22.3773 23.405C22.5008 23.405 22.6009 23.3048 22.6009 23.1813H22.6005V22.4186H22.4189V22.0382H22.9777L22.9777 23.7438H22.7328V23.6652C22.6333 23.7385 22.5103 23.7817 22.3773 23.7817C22.0466 23.7817 21.7783 23.5143 21.7769 23.1839H21.7767V21.1048L21.7769 21.1048C21.7769 20.7732 22.0457 20.5044 22.3773 20.5044C22.7089 20.5044 22.9777 20.7732 22.9777 21.1048L22.9777 21.5326H22.6005V21.1048L22.6009 21.1048C22.6009 20.9813 22.5008 20.8812 22.3773 20.8812Z" fill="#FFFFFB"/>
<mask id="mask0" style="mask-type:alpha" maskUnits="userSpaceOnUse" x="18" y="14" width="5" height="5">
<path fill-rule="evenodd" clip-rule="evenodd" d="M18.177 14.1605H22.4074V18.3982H18.177V14.1605Z" fill="white"/>
</mask>
<g mask="url(#mask0)">
<path fill-rule="evenodd" clip-rule="evenodd" d="M22.0576 16.3882C22.0017 17.3126 21.2338 18.0448 20.2961 18.0448C19.3204 18.0448 18.5307 17.2545 18.5307 16.2792C18.5307 15.4959 19.0402 14.8317 19.7464 14.6006C19.7592 14.5147 19.7659 14.4267 19.7659 14.3371C19.7659 14.3003 19.7646 14.2641 19.7628 14.2281C18.8505 14.4646 18.177 15.2933 18.177 16.2792C18.177 17.4492 19.1252 18.3982 20.2961 18.3982C21.4087 18.3982 22.3216 17.5394 22.4074 16.4479C22.2877 16.4376 22.1708 16.4175 22.0576 16.3882ZM20.2962 14.5135C21.1809 14.5135 21.9146 15.1655 22.042 16.0159C22.1584 16.0536 22.2801 16.08 22.406 16.0934C22.3117 15.0102 21.4028 14.1605 20.2962 14.1605C20.2342 14.1605 20.1731 14.1633 20.113 14.1684C20.1168 14.224 20.1192 14.2802 20.1192 14.3371C20.1192 14.3998 20.1161 14.462 20.1113 14.5231C20.1718 14.5167 20.2334 14.5135 20.2962 14.5135Z" fill="white"/>
</g>
<mask id="mask1" style="mask-type:alpha" maskUnits="userSpaceOnUse" x="13" y="14" width="5" height="5">
<path fill-rule="evenodd" clip-rule="evenodd" d="M13.5862 14.1606H17.817V18.3983H13.5862V14.1606Z" fill="white"/>
</mask>
<g mask="url(#mask1)">
<path fill-rule="evenodd" clip-rule="evenodd" d="M17.817 16.4479C17.7312 17.5395 16.8187 18.3983 15.7053 18.3983C14.5347 18.3983 13.5862 17.4493 13.5862 16.2792C13.5862 15.2933 14.2598 14.4647 15.1723 14.2282C15.1739 14.2641 15.1751 14.3003 15.1751 14.337C15.1751 14.4268 15.1683 14.5148 15.1555 14.6007C14.4495 14.8318 13.9401 15.496 13.9401 16.2792C13.9401 17.2545 14.7296 18.0449 15.7053 18.0449C16.6434 18.0449 17.4112 17.3127 17.4672 16.3882C17.58 16.4175 17.6974 16.4377 17.817 16.4479ZM15.5204 14.5232C15.5255 14.4621 15.5287 14.3999 15.5287 14.3371C15.5287 14.2803 15.5263 14.2241 15.5224 14.1684C15.5825 14.1634 15.6436 14.1606 15.7054 14.1606C16.8121 14.1606 17.7221 15.0103 17.8164 16.0935C17.6897 16.0799 17.5676 16.0537 17.4515 16.016C17.324 15.1656 16.5903 14.5135 15.7054 14.5135C15.6428 14.5135 15.581 14.5168 15.5204 14.5232Z" fill="white"/>
</g>
<mask id="mask2" style="mask-type:alpha" maskUnits="userSpaceOnUse" x="20" y="12" width="5" height="5">
<path fill-rule="evenodd" clip-rule="evenodd" d="M20.4779 12.2182H24.7094V16.4559H20.4779V12.2182Z" fill="white"/>
</mask>
<g mask="url(#mask2)">
<path fill-rule="evenodd" clip-rule="evenodd" d="M24.7094 14.3371C24.7094 15.5073 23.761 16.4559 22.5905 16.4559C21.4826 16.4559 20.574 15.6064 20.4796 14.5231C20.6064 14.5362 20.7277 14.5628 20.8445 14.6007C20.9715 15.4509 21.7046 16.1029 22.5905 16.1029C23.5655 16.1029 24.356 15.3121 24.356 14.3371C24.356 13.3622 23.5655 12.5714 22.5905 12.5714C21.6516 12.5714 20.8843 13.3037 20.8284 14.2283C20.7148 14.199 20.5984 14.1789 20.4779 14.1683C20.5647 13.0769 21.477 12.2182 22.5905 12.2182C23.761 12.2182 24.7094 13.167 24.7094 14.3371Z" fill="white"/>
</g>
<mask id="mask3" style="mask-type:alpha" maskUnits="userSpaceOnUse" x="15" y="12" width="6" height="5">
<path fill-rule="evenodd" clip-rule="evenodd" d="M15.8877 12.2182H20.1188V16.4559H15.8877V12.2182Z" fill="white"/>
</mask>
<g mask="url(#mask3)">
<path fill-rule="evenodd" clip-rule="evenodd" d="M17.9996 16.103C17.1146 16.103 16.3808 15.4509 16.2535 14.6007C16.137 14.5628 16.0156 14.5363 15.8888 14.5231C15.9833 15.6065 16.8919 16.456 17.9996 16.456C18.0617 16.456 18.123 16.4535 18.1833 16.448C18.1792 16.3927 18.1767 16.3363 18.1767 16.2793C18.1767 16.2167 18.1799 16.1545 18.185 16.0935C18.1241 16.0998 18.0623 16.103 17.9996 16.103ZM17.9995 12.2182C16.8861 12.2182 15.9739 13.0769 15.8877 14.1683C16.0077 14.1789 16.1238 14.199 16.2378 14.2283C16.2933 13.3037 17.0611 12.5714 17.9995 12.5714C18.9752 12.5714 19.7655 13.3622 19.7655 14.3371C19.7655 15.1203 19.2557 15.7847 18.5494 16.016C18.5368 16.1016 18.5303 16.1897 18.5303 16.2792C18.5303 16.316 18.5305 16.3524 18.5331 16.3882C19.4453 16.1518 20.1188 15.3232 20.1188 14.3371C20.1188 13.167 19.1704 12.2182 17.9995 12.2182Z" fill="white"/>
</g>
<mask id="mask4" style="mask-type:alpha" maskUnits="userSpaceOnUse" x="11" y="12" width="5" height="5">
<path fill-rule="evenodd" clip-rule="evenodd" d="M11.2906 12.2182H15.5282V16.4559H11.2906V12.2182Z" fill="white"/>
</mask>
<g mask="url(#mask4)">
<path fill-rule="evenodd" clip-rule="evenodd" d="M15.527 14.3371C15.527 13.167 14.5787 12.2182 13.4079 12.2182C12.2382 12.2182 11.2894 13.167 11.2894 14.3371C11.2894 15.5073 12.2382 16.4559 13.4079 16.4559C13.4699 16.4559 13.5307 16.4534 13.5912 16.4481C13.5871 16.3927 13.5846 16.3362 13.5846 16.2792C13.5846 16.2167 13.5879 16.1545 13.5928 16.0935C13.532 16.0997 13.4705 16.1029 13.4079 16.1029C12.4328 16.1029 11.6423 15.3121 11.6423 14.3371C11.6423 13.3622 12.4328 12.5714 13.4079 12.5714C14.3835 12.5714 15.1735 13.3622 15.1735 14.3371C15.1735 15.1204 14.6637 15.7847 13.9575 16.016C13.945 16.1016 13.9385 16.1897 13.9385 16.2792C13.9385 16.316 13.9388 16.3524 13.9412 16.3882C14.8535 16.1518 15.527 15.3232 15.527 14.3371Z" fill="white"/>
</g>
<defs>
<filter id="filter0_iiii" x="8" y="8" width="20" height="20" filterUnits="userSpaceOnUse" color-interpolation-filters="sRGB">
<feFlood flood-opacity="0" result="BackgroundImageFix"/>
<feBlend mode="normal" in="SourceGraphic" in2="BackgroundImageFix" result="shape"/>
<feColorMatrix in="SourceAlpha" type="matrix" values="0 0 0 0 0 0 0 0 0 0 0 0 0 0 0 0 0 0 127 0" result="hardAlpha"/>
<feOffset dx="-1"/>
<feComposite in2="hardAlpha" operator="arithmetic" k2="-1" k3="1"/>
<feColorMatrix type="matrix" values="0 0 0 0 0.756863 0 0 0 0 0.67451 0 0 0 0 0.431373 0 0 0 1 0"/>
<feBlend mode="normal" in2="shape" result="effect1_innerShadow"/>
<feColorMatrix in="SourceAlpha" type="matrix" values="0 0 0 0 0 0 0 0 0 0 0 0 0 0 0 0 0 0 127 0" result="hardAlpha"/>
<feOffset dy="1"/>
<feComposite in2="hardAlpha" operator="arithmetic" k2="-1" k3="1"/>
<feColorMatrix type="matrix" values="0 0 0 0 0.770833 0 0 0 0 0.708288 0 0 0 0 0.53316 0 0 0 1 0"/>
<feBlend mode="normal" in2="effect1_innerShadow" result="effect2_innerShadow"/>
<feColorMatrix in="SourceAlpha" type="matrix" values="0 0 0 0 0 0 0 0 0 0 0 0 0 0 0 0 0 0 127 0" result="hardAlpha"/>
<feOffset dx="1"/>
<feComposite in2="hardAlpha" operator="arithmetic" k2="-1" k3="1"/>
<feColorMatrix type="matrix" values="0 0 0 0 0.772549 0 0 0 0 0.709804 0 0 0 0 0.533333 0 0 0 1 0"/>
<feBlend mode="normal" in2="effect2_innerShadow" result="effect3_innerShadow"/>
<feColorMatrix in="SourceAlpha" type="matrix" values="0 0 0 0 0 0 0 0 0 0 0 0 0 0 0 0 0 0 127 0" result="hardAlpha"/>
<feOffset dy="-1"/>
<feComposite in2="hardAlpha" operator="arithmetic" k2="-1" k3="1"/>
<feColorMatrix type="matrix" values="0 0 0 0 0.758333 0 0 0 0 0.672969 0 0 0 0 0.432882 0 0 0 1 0"/>
<feBlend mode="normal" in2="effect3_innerShadow" result="effect4_innerShadow"/>
</filter>
</defs>
</svg>
